<svg xmlns="http://www.w3.org/2000/svg" xmlns:xlink="http://www.w3.org/1999/xlink" viewBox="0 0 596.63 390.65"><defs><style>.cls-1{fill:#ed0c37;}.cls-2,.cls-48{fill:#fd6141;}.cls-3{isolation:isolate;}.cls-4{fill:#ebf3fa;}.cls-11,.cls-14,.cls-32,.cls-5,.cls-9{fill:#fff;}.cls-10,.cls-6{fill:#a4c8fc;}.cls-13,.cls-17,.cls-18,.cls-21,.cls-25,.cls-42,.cls-47,.cls-55,.cls-7{fill:none;}.cls-25,.cls-42,.cls-47,.cls-55,.cls-7{stroke:#fff;}.cls-11,.cls-13,.cls-18,.cls-21,.cls-25,.cls-42,.cls-55,.cls-7,.cls-9{stroke-miterlimit:10;}.cls-7{stroke-width:0.97px;}.cls-8{fill:#739af0;}.cls-13,.cls-14,.cls-9{stroke:#764582;}.cls-9{stroke-width:0.97px;}.cls-10,.cls-43,.cls-46,.cls-48,.cls-50,.cls-56{fill-rule:evenodd;}.cls-11{stroke:#739af0;}.cls-11,.cls-14{stroke-width:1.02px;}.cls-12,.cls-24,.cls-58{fill:#764582;}.cls-13{stroke-width:1.26px;}.cls-14,.cls-18,.cls-32,.cls-47,.cls-55{stroke-linecap:round;}.cls-14,.cls-32,.cls-47{stroke-linejoin:round;}.cls-15,.cls-46{fill:#a1abad;opacity:0.7;}.cls-15,.cls-46,.cls-53,.cls-57{mix-blend-mode:multiply;}.cls-16{fill:#e2e2e2;}.cls-18,.cls-21{stroke:#efe9da;stroke-width:1.16px;}.cls-19,.cls-50{fill:#dd4026;}.cls-20{fill:#ffd25a;}.cls-22{fill:#3c8460;}.cls-23{fill:#71bf9d;}.cls-24{opacity:0.2;}.cls-25{stroke-width:0.97px;}.cls-26{fill:#e4bce8;}.cls-27{fill:#9d68aa;}.cls-28{fill:#fdeeff;}.cls-29,.cls-56{fill:#ffb072;}.cls-30{fill:#3e2344;}.cls-31{fill:#ffdcae;}.cls-32{stroke:#fd6141;stroke-width:1.85px;}.cls-33{fill:#ff8976;}.cls-34,.cls-53{fill:#ffbe57;}.cls-35{fill:#f99441;}.cls-36,.cls-43{fill:#d66b22;}.cls-37{clip-path:url(#clip-path);}.cls-38{fill:#ffaec1;}.cls-39{fill:#2b478b;}.cls-40{fill:#d8834a;}.cls-41{clip-path:url(#clip-path-2);}.cls-42,.cls-47,.cls-55{stroke-width:0.5px;}.cls-44,.cls-45{fill:#e57e55;}.cls-45,.cls-49,.cls-53{opacity:0.5;}.cls-51{clip-path:url(#clip-path-3);}.cls-52{fill:#f7b614;}.cls-54{clip-path:url(#clip-path-4);}.cls-58{opacity:0.3;}</style><clipPath id="clip-path" transform="translate(-76.69 -56.66)"><path class="cls-1" d="M289.87,377.08a7.37,7.37,0,0,0,.54,5.11c-.24.11-.06,1.09.37,1.29s4.16.19,4.9-.39a.78.78,0,0,0,0-.66s.91.35,3.51-.14a13.15,13.15,0,0,0,5-1.89c.31-.19.1-.88-.25-.77,0,0-.22-1.8-1.73-1.71a11.38,11.38,0,0,1-6.89-2,5.84,5.84,0,0,0-2.05-.9A3.51,3.51,0,0,0,289.87,377.08Z"/></clipPath><clipPath id="clip-path-2" transform="translate(-76.69 -56.66)"><path class="cls-1" d="M214.56,368.16a7.34,7.34,0,0,0-4,3.24c-.22-.14-.94.55-.88,1s2.11,3.58,3,3.89c.32,0,.54-.38.54-.38s.21,1,2,2.87a13.27,13.27,0,0,0,4.31,3.17c.33.15.79-.41.51-.64,0,0,1.39-1.17.49-2.38a11.36,11.36,0,0,1-2.07-6.87,5.7,5.7,0,0,0-.37-2.21A3.51,3.51,0,0,0,214.56,368.16Z"/></clipPath><clipPath id="clip-path-3" transform="translate(-76.69 -56.66)"><path class="cls-2" d="M495.55,371.58a28.53,28.53,0,0,1,2.39,2.29c.34.5,1.65,4.23,1.65,4.23a3.18,3.18,0,0,1-2,1.42l-1.66-2.14s-.85,3.74-1.71,4.95c-1,1.46-7,3.15-7.85,2.71,0,0-1.09-2.18.77-3.37,3.43-2.2,3.51-6.82,3.51-6.82A3.24,3.24,0,0,1,495.55,371.58Z"/></clipPath><clipPath id="clip-path-4" transform="translate(-76.69 -56.66)"><path class="cls-2" d="M509.18,374.32a28,28,0,0,1,1.41,3c.14.59.05,4.53.05,4.53a3.13,3.13,0,0,1-2.43.6l-.79-2.58a10.8,10.8,0,0,1-2.45,3.35c-1.49,1-6.79,2.23-7.68,1.79,0,0-1.23-2.37.74-3.37,4.92-2.53,5.36-6,5.36-6A3.24,3.24,0,0,1,509.18,374.32Z"/></clipPath></defs><title>buy</title><g class="cls-3"><g id="OBJECTS"><path class="cls-4" d="M369,249.71c-59.89-1-220.05,48.63-239.59,0-16.11-40.08,44.1-37,47.6-70.2s-12.17-47.32,12.82-62.68,65.71,6,92.61-15.36,40.93-36.88,101.47-44.25,105.35,60.84,131.25,67.6,63-10.45,81.21,10.45-40.6,67.13-28,86.41,43.46,29.74,31.53,56.78S427.26,250.62,369,249.71Z" transform="translate(-76.69 -56.66)"/><path class="cls-5" d="M130,231.15a2.1,2.1,0,0,1,.15-.76,2.72,2.72,0,0,1,.39-.68.38.38,0,0,1,.63,0,.51.51,0,0,1,.08.32,2.43,2.43,0,0,1-.16.73,3.82,3.82,0,0,1-.35.66.4.4,0,0,1-.64.07A.58.58,0,0,1,130,231.15Z" transform="translate(-76.69 -56.66)"/><path class="cls-5" d="M131.05,228.46a2.36,2.36,0,0,1,.26-.73,2.43,2.43,0,0,1,.46-.62c.24-.2.53-.17.64.07a.57.57,0,0,1,0,.32,3.23,3.23,0,0,1-.25.7,2.8,2.8,0,0,1-.44.6c-.21.22-.5.22-.63,0A.52.52,0,0,1,131.05,228.46Z" transform="translate(-76.69 -56.66)"/><path class="cls-5" d="M132.48,225.94a2.74,2.74,0,0,1,.33-.69,2.39,2.39,0,0,1,.54-.56c.26-.18.53-.12.62.13a.53.53,0,0,1,0,.33,2.61,2.61,0,0,1-.35.66,2.35,2.35,0,0,1-.49.56c-.25.18-.54.14-.64-.09A.56.56,0,0,1,132.48,225.94Z" transform="translate(-76.69 -56.66)"/><path class="cls-5" d="M135.66,221.92a2.19,2.19,0,0,1,.45-.63,2,2,0,0,1,.62-.45c.28-.13.55,0,.59.23a.55.55,0,0,1,0,.33,3,3,0,0,1-.45.59,2.73,2.73,0,0,1-.6.46c-.27.14-.54.05-.6-.2A.48.48,0,0,1,135.66,221.92Z" transform="translate(-76.69 -56.66)"/><path class="cls-5" d="M138.3,219.41a1,1,0,0,1,.71-.58.42.42,0,0,1,.52.49l0,.12a.92.92,0,0,1-.28.36.94.94,0,0,1-.41.21c-.34.05-.58-.16-.53-.48A.5.5,0,0,1,138.3,219.41Z" transform="translate(-76.69 -56.66)"/><path class="cls-5" d="M140.77,217.56a1,1,0,0,1,.32-.35,1,1,0,0,1,.45-.16.41.41,0,0,1,.45.55.36.36,0,0,1,0,.11.83.83,0,0,1-.31.33,1,1,0,0,1-.43.16c-.34,0-.56-.22-.48-.53A.36.36,0,0,1,140.77,217.56Z" transform="translate(-76.69 -56.66)"/><path class="cls-5" d="M136.47,256.5c-.73-.78-1.34-1.65-2-2.48s-1.17-1.78-1.7-2.7-1-1.89-1.43-2.86l-1.17-3a24.33,24.33,0,0,1-1.26-6.27,19.74,19.74,0,0,1,.64-6.36c.08-.29.31-.47.52-.4a.47.47,0,0,1,.24.58,20.33,20.33,0,0,0-.46,6.12,23.93,23.93,0,0,0,1.26,6l1.12,2.89c.43,1,.91,1.86,1.36,2.79s1.07,1.77,1.6,2.66,1.19,1.69,1.87,2.47a.46.46,0,0,1,0,.64A.49.49,0,0,1,136.47,256.5Z" transform="translate(-76.69 -56.66)"/><path class="cls-5" d="M138,257.11a2.19,2.19,0,0,1,.51.38,1.74,1.74,0,0,1,.38.5c.13.28,0,.55-.26.59a.51.51,0,0,1-.27,0,1.84,1.84,0,0,1-.55-.35,1.77,1.77,0,0,1-.37-.55.4.4,0,0,1,.3-.59A.58.58,0,0,1,138,257.11Z" transform="translate(-76.69 -56.66)"/><path class="cls-5" d="M139.68,258.74a2.23,2.23,0,0,1,.54.33,1.58,1.58,0,0,1,.43.46.4.4,0,0,1-.2.62.53.53,0,0,1-.28,0,1.78,1.78,0,0,1-.58-.3,1.47,1.47,0,0,1-.41-.51c-.14-.29,0-.56.24-.61A.46.46,0,0,1,139.68,258.74Z" transform="translate(-76.69 -56.66)"/><path class="cls-5" d="M141.54,260.21l2.19,1.27,2.2,1.24a.44.44,0,0,1,.23.59.47.47,0,0,1-.54.12,13.88,13.88,0,0,1-2.39-1.08,16.09,16.09,0,0,1-2.14-1.5c-.22-.21-.26-.49-.1-.64A.48.48,0,0,1,141.54,260.21Z" transform="translate(-76.69 -56.66)"/><path class="cls-5" d="M147.92,263.5a.77.77,0,0,1,.4,0,.66.66,0,0,1,.32.22.45.45,0,0,1-.2.74h0a.71.71,0,0,1-.41,0,.8.8,0,0,1-.34-.22.45.45,0,0,1,.23-.73Z" transform="translate(-76.69 -56.66)"/><path class="cls-5" d="M150.36,264.15a.67.67,0,0,1,.39,0,.65.65,0,0,1,.34.17.45.45,0,0,1-.09.76h0a.77.77,0,0,1-.42,0,.72.72,0,0,1-.36-.18.44.44,0,0,1,.13-.75Z" transform="translate(-76.69 -56.66)"/><path class="cls-6" d="M371.06,88.27Q329,95.11,305.6,126.58c-14.55,19.15-11.43,43.78,1,62.93,11.43,18.24,33.25,24.63,54,29.19,58.18,13.68,111.18,31,166.24,48.34,23.9,7.29,52,18.24,72.74,1.82l0,0a6.49,6.49,0,0,0,2.42-6.43c-3.31-16.15-24-25.78-33.76-40.72-12.6-19.28,46.2-65.52,28-86.41s-55.31-3.69-81.21-10.45a36.45,36.45,0,0,1-10-4.78C458.78,109.76,422.16,80.35,371.06,88.27Z" transform="translate(-76.69 -56.66)"/><path class="cls-7" d="M577.36,281.38c-24.49,0-66.52-9.4-107.18-18.48-40-8.94-77.8-17.39-101.12-17.75l-1.82,0c-19.18,0-47.42,4.6-77.32,9.46-34.48,5.61-73.56,12-103.88,12-29.87,0-46.8-6-51.76-18.36-7.67-19.09,3.64-25.91,19.3-35.34,12.57-7.56,26.81-16.14,28.58-32.92,1.25-11.85.13-21.46-.77-29.18-1.67-14.41-2.51-21.64,11.39-30.19,6-3.68,13.43-5.25,24.9-5.25,4.37,0,8.82.22,13.54.45s9.72.46,14.62.46c12,0,27.34-1.29,40-11.37,2.47-2,4.84-3.88,7.14-5.74,22.16-17.92,38.17-30.87,91.56-37.38a70.37,70.37,0,0,1,8.46-.51c33.91,0,62.73,24.56,85.89,44.29,13.82,11.78,24.74,21.08,34.71,23.68a66.72,66.72,0,0,0,16.87,1.87c6.08,0,12.36-.52,18.44-1s11.75-1,17.24-1c12.76,0,20.53,2.69,26,9,7.53,8.64-4,26.18-14.18,41.66-11.12,16.92-21.62,32.9-14.2,44.25,4.29,6.57,10.34,12,16.19,17.28,12.28,11.05,22,19.77,15,35.58C593.72,279.75,587.45,281.38,577.36,281.38Z" transform="translate(-76.69 -56.66)"/><rect class="cls-8" x="140.06" y="82.54" width="320.48" height="176.97" rx="3.85"/><rect class="cls-9" x="134.46" y="75.86" width="320.48" height="176.96" rx="2.12"/><path class="cls-10" d="M229,147.69h20.5v-1.21H229Zm-4.82.6h2.41v-2.41h-2.41Zm4.82,6h20.5v-1.21H229Zm-4.82.6h2.41v-2.41h-2.41Zm4.82,6h20.5v-1.2H229Zm-4.82.6h2.41v-2.41h-2.41Z" transform="translate(-76.69 -56.66)"/><rect class="cls-11" x="147.5" y="115.56" width="91.02" height="88.24" rx="15.11"/><rect class="cls-11" x="249.74" y="115.56" width="91.02" height="88.24" rx="15.11"/><rect class="cls-11" x="351.98" y="115.56" width="91.02" height="88.24" rx="15.11"/><path class="cls-12" d="M497.41,154.9l-1.53-10.19a.58.58,0,0,0-.56-.49h-2.74v-1.27l2.75,0a1.83,1.83,0,0,1,1.8,1.56l.17,1.14,17.29.11-1.78,8Zm.08-8,1,6.64,13.29-.95L513,147Z" transform="translate(-76.69 -56.66)"/><path class="cls-12" d="M513.05,157.3l-14.94-.08a1.15,1.15,0,0,1-.84-.39,1.14,1.14,0,0,1-.24-.89l.29-1.81,1.25.2-.26,1.62,14.74.09Z" transform="translate(-76.69 -56.66)"/><path class="cls-13" d="M501.92,159.8a1.71,1.71,0,1,1-3.41,0,1.71,1.71,0,0,1,3.41,0Z" transform="translate(-76.69 -56.66)"/><path class="cls-13" d="M510.87,159.86a1.71,1.71,0,1,1-1.7-1.72A1.7,1.7,0,0,1,510.87,159.86Z" transform="translate(-76.69 -56.66)"/><line class="cls-14" x1="249.3" y1="209.9" x2="340.76" y2="209.9"/><path class="cls-15" d="M393.29,221.13c0,.92-11.09,1.68-24.78,1.68s-24.78-.76-24.78-1.68,11.09-1.68,24.78-1.68S393.29,220.2,393.29,221.13Z" transform="translate(-76.69 -56.66)"/><path class="cls-8" d="M348.78,203.61s.5-1.25,4.84.39c2.35.9,5.42,3.05,11.39.45,0,0,1.82,6-5.79,5.51A12.67,12.67,0,0,1,348.78,203.61Z" transform="translate(-76.69 -56.66)"/><path class="cls-16" d="M391.09,213.32l1.76.47c1,.53.95,3.19.13,4,0,0-7.12,4.16-28,4.52-12-.23-20-2.28-20.37-3.1a10.79,10.79,0,0,1-.33-3.92l2.26-2.63Z" transform="translate(-76.69 -56.66)"/><path class="cls-8" d="M348.78,203.61s-2.34,2.25-2.62,4.11c-.4,2.67-.85,4-.57,6.68,0,0,6.76,2.64,18,2.77A116.47,116.47,0,0,0,383,215.86c5-.89,9.88-2.07,9.88-2.07-1.43-5-5.77-3.16-12-5.11-4.2-1.33-14.21-9.59-14.21-9.59s-2.32,1.72-2.44,2.6c-.08.56,1,2,1,2s-.28,4.75-5,5.06S348.78,203.61,348.78,203.61Z" transform="translate(-76.69 -56.66)"/><path class="cls-17" d="M392.85,213.79a27.12,27.12,0,0,1-9.19,3.59,106.57,106.57,0,0,1-20.36,1.22c-6.27-.24-19-3.3-19-3.3" transform="translate(-76.69 -56.66)"/><path class="cls-18" d="M365.27,203.7a15.69,15.69,0,0,1,3.25.31c2,.7,7.79,5.32,12.12,5.86" transform="translate(-76.69 -56.66)"/><path class="cls-16" d="M372.44,203.53l-1.94,3.12c-.26.37-1.42-.47-1.16-.83l1.8-3.3C371.52,202,372.82,203,372.44,203.53Z" transform="translate(-76.69 -56.66)"/><path class="cls-16" d="M375.25,205.19l-2,3.31c-.25.55-1.55,0-1.3-.58l2-3.74C374.33,203.68,375.64,204.69,375.25,205.19Z" transform="translate(-76.69 -56.66)"/><path class="cls-16" d="M378.06,206.85,376,210.17c-.22.47-1.5-.12-1.28-.59l2-3.74C377.15,205.34,378.45,206.35,378.06,206.85Z" transform="translate(-76.69 -56.66)"/><path class="cls-16" d="M366.56,205.25a.74.74,0,0,1,1.48.06l-.59,5.55c0,.8-.84.8-.84,0Z" transform="translate(-76.69 -56.66)"/><path class="cls-18" d="M361.43,217.22a6.13,6.13,0,0,1,3.05-3.6c2.66-1.25,9,1.12,12.48-.82a36.45,36.45,0,0,0,3.68-2.93" transform="translate(-76.69 -56.66)"/><path class="cls-18" d="M346.77,206.26s3.75,1.68,5.5,3.89c.78,1,1.88,6.37,1.88,6.37" transform="translate(-76.69 -56.66)"/><path class="cls-15" d="M297.42,221.13c0,.92-11.09,1.68-24.78,1.68s-24.78-.76-24.78-1.68,11.09-1.68,24.78-1.68S297.42,220.2,297.42,221.13Z" transform="translate(-76.69 -56.66)"/><path class="cls-19" d="M252.91,203.61s.5-1.25,4.84.39c2.35.9,5.42,3.05,11.39.45,0,0,1.82,6-5.79,5.51A12.67,12.67,0,0,1,252.91,203.61Z" transform="translate(-76.69 -56.66)"/><path class="cls-16" d="M295.22,213.32l1.76.47c1,.53.95,3.19.13,4,0,0-7.12,4.16-27.95,4.52-12-.23-20-2.28-20.37-3.1a10.79,10.79,0,0,1-.33-3.92l2.26-2.63Z" transform="translate(-76.69 -56.66)"/><path class="cls-20" d="M252.91,203.61s-2.34,2.25-2.62,4.11c-.4,2.67-.85,4-.57,6.68,0,0,6.76,2.64,18,2.77a116.47,116.47,0,0,0,19.36-1.31c5-.89,9.88-2.07,9.88-2.07-1.43-5-5.77-3.16-12-5.11-4.2-1.33-14.21-9.59-14.21-9.59s-2.32,1.72-2.44,2.6c-.08.56,1,2,1,2s-.28,4.75-5,5.06S252.91,203.61,252.91,203.61Z" transform="translate(-76.69 -56.66)"/><path class="cls-17" d="M297,213.79a27.12,27.12,0,0,1-9.19,3.59,106.57,106.57,0,0,1-20.36,1.22c-6.27-.24-19-3.3-19-3.3" transform="translate(-76.69 -56.66)"/><path class="cls-21" d="M269.4,203.7a15.69,15.69,0,0,1,3.25.31c2,.7,7.79,5.32,12.12,5.86" transform="translate(-76.69 -56.66)"/><path class="cls-16" d="M276.57,203.53l-1.94,3.12c-.26.37-1.42-.47-1.15-.83l1.79-3.3C275.65,202,277,203,276.57,203.53Z" transform="translate(-76.69 -56.66)"/><path class="cls-16" d="M279.38,205.19l-2,3.31c-.25.55-1.55,0-1.3-.58l2-3.74C278.47,203.68,279.77,204.69,279.38,205.19Z" transform="translate(-76.69 -56.66)"/><path class="cls-16" d="M282.19,206.85l-2.05,3.32c-.22.47-1.5-.12-1.28-.59l2-3.74C281.28,205.34,282.58,206.35,282.19,206.85Z" transform="translate(-76.69 -56.66)"/><path class="cls-16" d="M270.69,205.25a.74.74,0,0,1,1.48.06l-.59,5.55c0,.8-.84.8-.84,0Z" transform="translate(-76.69 -56.66)"/><path class="cls-21" d="M265.56,217.22a6.13,6.13,0,0,1,3.05-3.6c2.66-1.25,9,1.12,12.48-.82a36.45,36.45,0,0,0,3.68-2.93" transform="translate(-76.69 -56.66)"/><path class="cls-21" d="M250.9,206.26s3.75,1.68,5.5,3.89c.78,1,1.88,6.37,1.88,6.37" transform="translate(-76.69 -56.66)"/><path class="cls-15" d="M496.6,221.13c0,.92-11.09,1.68-24.78,1.68S447,222.05,447,221.13s11.09-1.68,24.78-1.68S496.6,220.2,496.6,221.13Z" transform="translate(-76.69 -56.66)"/><path class="cls-22" d="M452.09,203.61s.5-1.25,4.84.39c2.35.9,5.42,3.05,11.39.45,0,0,1.81,6-5.79,5.51A12.67,12.67,0,0,1,452.09,203.61Z" transform="translate(-76.69 -56.66)"/><path class="cls-16" d="M494.4,213.32l1.76.47c1,.53.95,3.19.12,4,0,0-7.11,4.16-27.94,4.52-12-.23-20-2.28-20.37-3.1a10.79,10.79,0,0,1-.33-3.92l2.26-2.63Z" transform="translate(-76.69 -56.66)"/><path class="cls-23" d="M452.09,203.61s-2.35,2.25-2.62,4.11c-.4,2.67-.86,4-.57,6.68,0,0,6.76,2.64,18,2.77a116.54,116.54,0,0,0,19.36-1.31c5-.89,9.88-2.07,9.88-2.07-1.43-5-5.77-3.16-12-5.11-4.2-1.33-14.21-9.59-14.21-9.59s-2.32,1.72-2.44,2.6c-.08.56,1,2,1,2s-.28,4.75-5,5.06S452.09,203.61,452.09,203.61Z" transform="translate(-76.69 -56.66)"/><path class="cls-17" d="M496.16,213.79a27.12,27.12,0,0,1-9.19,3.59,106.62,106.62,0,0,1-20.36,1.22c-6.27-.24-19-3.3-19-3.3" transform="translate(-76.69 -56.66)"/><path class="cls-21" d="M468.58,203.7a15.69,15.69,0,0,1,3.25.31c2,.7,7.79,5.32,12.12,5.86" transform="translate(-76.69 -56.66)"/><path class="cls-16" d="M475.74,203.53l-1.93,3.12c-.26.37-1.42-.47-1.16-.83l1.79-3.3C474.83,202,476.13,203,475.74,203.53Z" transform="translate(-76.69 -56.66)"/><path class="cls-16" d="M478.56,205.19l-2,3.31c-.25.55-1.55,0-1.3-.58l2-3.74C477.64,203.68,478.94,204.69,478.56,205.19Z" transform="translate(-76.69 -56.66)"/><path class="cls-16" d="M481.37,206.85l-2.06,3.32c-.22.47-1.49-.12-1.27-.59l2-3.74C480.46,205.34,481.76,206.35,481.37,206.85Z" transform="translate(-76.69 -56.66)"/><path class="cls-16" d="M469.87,205.25a.74.74,0,0,1,1.47.06l-.58,5.55c0,.8-.84.8-.84,0Z" transform="translate(-76.69 -56.66)"/><path class="cls-21" d="M464.74,217.22a6.13,6.13,0,0,1,3.05-3.6c2.66-1.25,9,1.12,12.48-.82a36.45,36.45,0,0,0,3.68-2.93" transform="translate(-76.69 -56.66)"/><path class="cls-21" d="M450.08,206.26s3.75,1.68,5.49,3.89c.79,1,1.89,6.37,1.89,6.37" transform="translate(-76.69 -56.66)"/><path class="cls-2" d="M385.43,244.27v.61c.87,0,2.41.36,2.41.87,0,.22-.34.8-.49.8a5.16,5.16,0,0,0-1.92-.58v3.56c1.36.49,2.91,1,2.91,3.14a2.88,2.88,0,0,1-2.91,3v.76c0,.17-.09.25-.31.25s-.3-.08-.3-.25v-.74c-1.72-.05-3-.71-3-1.12,0-.24.36-.82.53-.82a5.61,5.61,0,0,0,2.49.84v-3.94c-1.34-.52-2.82-1-2.82-3,0-1.49,1.1-2.53,2.82-2.71v-.64c0-.17.09-.25.3-.25S385.43,244.1,385.43,244.27Zm-2.05,3.41c0,.87.63,1.28,1.44,1.62V246A1.58,1.58,0,0,0,383.38,247.68Zm2.05,6.85a1.81,1.81,0,0,0,1.52-1.86c0-1-.68-1.42-1.52-1.78Z" transform="translate(-76.69 -56.66)"/><rect class="cls-8" x="275.02" y="194.23" width="29.31" height="5.28" rx="2.46"/><path class="cls-24" d="M671,447.31H79a2.33,2.33,0,0,1-1.45-4.15l88.65-70.82a11,11,0,0,1,6.83-2.35H577a11,11,0,0,1,6.83,2.35l88.65,70.82A2.33,2.33,0,0,1,671,447.31Z" transform="translate(-76.69 -56.66)"/><path class="cls-6" d="M668.71,418.36H81.29l91.09-72.76a10.58,10.58,0,0,1,6.63-2.29H571a10.58,10.58,0,0,1,6.63,2.29Z" transform="translate(-76.69 -56.66)"/><polygon class="cls-8" points="533.8 355.19 62.83 355.19 129.14 293.16 467.49 293.16 533.8 355.19"/><polygon class="cls-5" points="528.02 355.19 68.61 355.19 133.29 295.82 463.34 295.82 528.02 355.19"/><path class="cls-8" d="M4.6,361.7H592a0,0,0,0,1,0,0v5.2a14.32,14.32,0,0,1-14.32,14.32H18.92A14.32,14.32,0,0,1,4.6,366.9v-5.2a0,0,0,0,1,0,0Z"/><line class="cls-25" x1="4.6" y1="369.29" x2="592.03" y2="369.29"/><rect class="cls-12" x="116.87" y="364.73" width="89.91" height="10.26" rx="4.78"/><rect class="cls-26" x="116.87" y="365.88" width="89.91" height="9.11" rx="4.24"/><polygon class="cls-27" points="490.34 304.55 523.72 334.07 541.6 334.07 541.6 331.72 490.34 302.2 490.34 304.55"/><polygon class="cls-28" points="490.34 302.2 523.72 331.72 541.6 331.72 504.49 302.2 490.34 302.2"/><ellipse class="cls-5" cx="82.65" cy="316.29" rx="14.04" ry="6.11"/><path class="cls-12" d="M169.18,372.5c0,2.12-4.41,3.83-9.84,3.83s-9.84-1.71-9.84-3.83,4.41-3.83,9.84-3.83S169.18,370.39,169.18,372.5Z" transform="translate(-76.69 -56.66)"/><path class="cls-5" d="M160.51,371.64c0,.72-1.52,1.32-3.4,1.32s-3.39-.6-3.39-1.32,1.52-1.32,3.39-1.32S160.51,370.91,160.51,371.64Z" transform="translate(-76.69 -56.66)"/><path class="cls-29" d="M433.06,258.44" transform="translate(-76.69 -56.66)"/><path class="cls-24" d="M320.58,372.12l-7.9,13.66c-1.6,2.78.59,6.12,4,6.12h77.59a4.24,4.24,0,0,0,4.3-5.47l-4.92-13.67a4.53,4.53,0,0,0-4.3-2.86H324.57A4.59,4.59,0,0,0,320.58,372.12Z" transform="translate(-76.69 -56.66)"/><path class="cls-12" d="M336.46,368.32a6.89,6.89,0,1,1-6.89-6.89A6.89,6.89,0,0,1,336.46,368.32Z" transform="translate(-76.69 -56.66)"/><circle class="cls-30" cx="252.88" cy="311.66" r="4.14"/><path class="cls-31" d="M326.85,367.56l2.36-6.23a.86.86,0,0,1,.8-.55h8.22a.86.86,0,0,1,.63,1.44l-7.4,8a2.33,2.33,0,0,1-2.42.63l-.74-.25A2.32,2.32,0,0,1,326.85,367.56Z" transform="translate(-76.69 -56.66)"/><circle class="cls-12" cx="252.88" cy="311.66" r="1.59"/><path class="cls-12" d="M376.38,368.32a6.89,6.89,0,1,0,6.89-6.89A6.89,6.89,0,0,0,376.38,368.32Z" transform="translate(-76.69 -56.66)"/><path class="cls-30" d="M379.13,368.32a4.14,4.14,0,1,0,4.14-4.15A4.14,4.14,0,0,0,379.13,368.32Z" transform="translate(-76.69 -56.66)"/><path class="cls-31" d="M386,367.56l-2.36-6.23a.86.86,0,0,0-.8-.55h-8.22a.86.86,0,0,0-.63,1.44l7.4,8a2.33,2.33,0,0,0,2.42.63l.74-.25A2.32,2.32,0,0,0,386,367.56Z" transform="translate(-76.69 -56.66)"/><circle class="cls-12" cx="306.59" cy="311.66" r="1.59"/><path class="cls-2" d="M311.55,304.29a1,1,0,0,1-.94-.62c-2.34-5.4-6.23-14.21-6.93-15.32-1-.76-8.91-3.56-16-5.87a1,1,0,0,1,0-1.94l12.66-4.1a1,1,0,0,1,.58,0c1.21.33,11.9,3.29,14.2,5.43,1.82,1.7,7.21,12.92,8.27,15.16a1,1,0,0,1-1.85.87c-2.39-5-6.63-13.43-7.81-14.54-1.43-1.32-8.63-3.64-13.05-4.87l-9.39,3c6.54,2.17,13.3,4.59,14,5.56.85,1.13,6.15,13.35,7.2,15.79a1,1,0,0,1-.53,1.34A1.14,1.14,0,0,1,311.55,304.29Z" transform="translate(-76.69 -56.66)"/><polygon class="cls-32" points="232.09 242.46 243.62 235.31 332.48 239.65 334.52 245.22 232.09 242.46"/><path class="cls-2" d="M307.94,299.3l13.45,44.36a3.06,3.06,0,0,0,3,2.18l74.39-2.3a3.08,3.08,0,0,0,2.89-2.35l9.51-39.31Z" transform="translate(-76.69 -56.66)"/><path class="cls-33" d="M327.94,317.85c4.81,10,15.44,12,25.56,11.52,21.73-1.08,40.72-9.56,53.45-27.59l-79.13-2c-1.17,0-1.74,7.57-1.8,8.56A19.39,19.39,0,0,0,327.94,317.85Z" transform="translate(-76.69 -56.66)"/><path class="cls-2" d="M398.63,368.12a28.83,28.83,0,0,0-4.14-9.1c-.7-1-1.85-2-4.55-2h-61.6c-1,0-2.71-.16-3.44-1.24s-.3-2.61.16-3.77a67.16,67.16,0,0,1,3.45-7.62l-2.41.2a54.62,54.62,0,0,0-3,6.68c-.92,2.36-.9,4.26.06,5.66s2.73,2.13,5.13,2.13h3.3v1.38a1.54,1.54,0,0,0,1.55,1.55h1.18a1.54,1.54,0,0,0,1.55-1.55V359h40.73v1.38a1.55,1.55,0,0,0,1.56,1.55h1.17a1.55,1.55,0,0,0,1.56-1.55V359h9c1.86,0,2.48.63,2.91,1.22a27.07,27.07,0,0,1,3.8,8.39,1.9,1.9,0,0,1-.15,1.64,3.42,3.42,0,0,1-2.38.82c-14.28.32-45.06.15-61.6.05l-10.41-.05c-2.51,0-4.38-.71-5.26-2s-.82-3.09.07-5.32c2-4.91,7.76-19.52,7.76-19.52l-1.9-.75S317,358.07,315,363c-1.47,3.64-.74,5.94.13,7.23,1.27,1.88,3.74,2.92,6.95,2.92l5.8,0v1.34a1.56,1.56,0,0,0,1.56,1.55h1.18a1.56,1.56,0,0,0,1.55-1.55v-1l.3-.31c9.43.06,23.48.14,36.47.14l10.23,0v1.2a1.55,1.55,0,0,0,1.55,1.55h1.18a1.55,1.55,0,0,0,1.55-1.55v-1.22c4.08,0,7.73-.08,10.68-.14a5.16,5.16,0,0,0,4-1.64A3.77,3.77,0,0,0,398.63,368.12Z" transform="translate(-76.69 -56.66)"/><path class="cls-5" d="M408.23,301.05l-9.22,38a2.41,2.41,0,0,1-2.26,1.83L362,342q4-4.37,8-8.79c.2-.22.26-.49.14-.62s-.41-.06-.62.17q-4.29,4.42-8.51,8.92h0a1.31,1.31,0,0,0-.22.34l-30.67,1c2.87-3.09,5.7-6.19,8.52-9.32.2-.23.27-.51.15-.64s-.41-.05-.63.19q-4.49,4.64-8.91,9.35h0a1.23,1.23,0,0,0-.27.46l-2.77.08a2.42,2.42,0,0,1-2.38-1.7l-6.12-20.18q2.38-2.58,4.68-5.21a.33.33,0,0,0,0-.45.32.32,0,0,0-.46,0q-2.28,2.29-4.5,4.65l-6.58-21.68-1,.29,13,42.88a3.41,3.41,0,0,0,3.27,2.42h.11l70.51-2.18a3.43,3.43,0,0,0,3.22-2.61l9.22-38Z" transform="translate(-76.69 -56.66)"/><path class="cls-5" d="M323.23,315.15a4.21,4.21,0,0,0,.71-.62,3.87,3.87,0,0,0,.57-.76.38.38,0,0,0,0-.37.38.38,0,0,0-.52-.12,4.21,4.21,0,0,0-.71.62,3.87,3.87,0,0,0-.57.76.35.35,0,0,0,0,.37A.37.37,0,0,0,323.23,315.15Z" transform="translate(-76.69 -56.66)"/><path class="cls-5" d="M325.12,313.12a.42.42,0,0,0,.25-.12.36.36,0,0,0,.1-.26h0a.5.5,0,0,0-.53-.48.31.31,0,0,0-.24.12.34.34,0,0,0-.1.25v0A.51.51,0,0,0,325.12,313.12Z" transform="translate(-76.69 -56.66)"/><path class="cls-5" d="M333.62,304q3.12-3.17,6.15-6.4h0a.46.46,0,0,0-.68-.63q-3,3.26-6,6.58a.34.34,0,0,0,0,.45A.32.32,0,0,0,333.62,304Z" transform="translate(-76.69 -56.66)"/><path class="cls-5" d="M332.55,305.18a.42.42,0,0,0,.25-.12.36.36,0,0,0,.1-.26h0a.5.5,0,0,0-.52-.48.33.33,0,0,0-.25.12.34.34,0,0,0-.1.25h0A.51.51,0,0,0,332.55,305.18Z" transform="translate(-76.69 -56.66)"/><path class="cls-5" d="M331.43,306.39a.39.39,0,0,0,.24-.12.36.36,0,0,0,.1-.26h0a.5.5,0,0,0-.52-.48.33.33,0,0,0-.25.12.34.34,0,0,0-.1.25h0A.51.51,0,0,0,331.43,306.39Z" transform="translate(-76.69 -56.66)"/><path class="cls-5" d="M330.3,307.6a.45.45,0,0,0,.25-.12.41.41,0,0,0,.1-.26h0a.52.52,0,0,0-.53-.48.35.35,0,0,0-.25.12.34.34,0,0,0-.1.25h0A.51.51,0,0,0,330.3,307.6Z" transform="translate(-76.69 -56.66)"/><path class="cls-5" d="M326.42,311.75a18.56,18.56,0,0,0,1.49-1.45,20.31,20.31,0,0,0,1.34-1.58.36.36,0,0,0,0-.45.37.37,0,0,0-.51,0,21.07,21.07,0,0,0-2.83,3,.36.36,0,0,0,0,.44A.36.36,0,0,0,326.42,311.75Z" transform="translate(-76.69 -56.66)"/><path class="cls-5" d="M339.47,332.14c.08.2.37.19.65,0a13.72,13.72,0,0,0,1.24-1.17,13.89,13.89,0,0,0,1.09-1.32.65.65,0,0,0,.13-.52c-.09-.21-.38-.19-.66,0a13.83,13.83,0,0,0-1.24,1.18,12.32,12.32,0,0,0-1.08,1.31A.6.6,0,0,0,339.47,332.14Z" transform="translate(-76.69 -56.66)"/><path class="cls-5" d="M343.56,328.42a1.05,1.05,0,0,0,.39-.27,1.07,1.07,0,0,0,.24-.4v0c.09-.39-.14-.6-.53-.48a1.13,1.13,0,0,0-.39.27,1,1,0,0,0-.24.41v0C342.93,328.34,343.17,328.55,343.56,328.42Z" transform="translate(-76.69 -56.66)"/><path class="cls-5" d="M359,311.89q5.57-5.79,11.06-11.66h0c.32-.34.41-.75.23-.92s-.6,0-.91.29q-5.46,5.89-10.86,11.84c-.2.23-.28.51-.15.64S358.73,312.13,359,311.89Z" transform="translate(-76.69 -56.66)"/><path class="cls-5" d="M357,314a1.13,1.13,0,0,0,.39-.27,1,1,0,0,0,.24-.41v0c.09-.39-.15-.6-.54-.47a1,1,0,0,0-.39.27,1,1,0,0,0-.24.4v0C356.37,314,356.61,314.16,357,314Z" transform="translate(-76.69 -56.66)"/><path class="cls-5" d="M355,316.23a1.08,1.08,0,0,0,.64-.68v0c.09-.39-.15-.6-.53-.47a.91.91,0,0,0-.39.27.93.93,0,0,0-.24.41h0C354.33,316.14,354.57,316.36,355,316.23Z" transform="translate(-76.69 -56.66)"/><path class="cls-5" d="M352.91,318.42a.91.91,0,0,0,.39-.27,1,1,0,0,0,.24-.41v0c.09-.39-.15-.6-.54-.47a1.19,1.19,0,0,0-.39.27,1.27,1.27,0,0,0-.24.41h0C352.29,318.33,352.52,318.55,352.91,318.42Z" transform="translate(-76.69 -56.66)"/><path class="cls-5" d="M345.9,325.94c.91-.85,1.77-1.77,2.63-2.67s1.7-1.85,2.49-2.82c.18-.23.25-.49.15-.63s-.42-.11-.68.14c-.92.85-1.77,1.77-2.64,2.67s-1.69,1.85-2.48,2.82c-.19.23-.26.49-.16.63S345.64,326.19,345.9,325.94Z" transform="translate(-76.69 -56.66)"/><path class="cls-5" d="M371.42,331.72a10.42,10.42,0,0,0,1.18-1.12,12.53,12.53,0,0,0,1-1.25.57.57,0,0,0,.11-.51c-.08-.21-.37-.2-.64,0a11.39,11.39,0,0,0-1.18,1.12,12.42,12.42,0,0,0-1,1.26.57.57,0,0,0-.11.51C370.86,331.94,371.15,331.94,371.42,331.72Z" transform="translate(-76.69 -56.66)"/><path class="cls-5" d="M374.7,328.21a1,1,0,0,0,.37-.25,1.05,1.05,0,0,0,.23-.4h0c.08-.38-.15-.6-.53-.48a.9.9,0,0,0-.37.25.94.94,0,0,0-.23.4h0C374.08,328.11,374.32,328.33,374.7,328.21Z" transform="translate(-76.69 -56.66)"/><path class="cls-5" d="M389.4,312.42q5.31-5.52,10.56-11.12h0c.3-.32.39-.72.2-.89s-.58-.06-.88.26q-5.22,5.63-10.36,11.32c-.2.22-.26.49-.14.61S389.18,312.65,389.4,312.42Z" transform="translate(-76.69 -56.66)"/><path class="cls-5" d="M387.53,314.47a.94.94,0,0,0,.38-.25,1.09,1.09,0,0,0,.23-.39v0c.08-.38-.16-.59-.53-.48a1,1,0,0,0-.38.26.94.94,0,0,0-.23.39h0C386.92,314.37,387.16,314.59,387.53,314.47Z" transform="translate(-76.69 -56.66)"/><path class="cls-5" d="M385.58,316.57a1,1,0,0,0,.38-.26.88.88,0,0,0,.22-.39v0c.08-.38-.16-.59-.53-.47a.94.94,0,0,0-.38.25,1.09,1.09,0,0,0-.23.39v0C385,316.47,385.21,316.68,385.58,316.57Z" transform="translate(-76.69 -56.66)"/><path class="cls-5" d="M383.63,318.66a1,1,0,0,0,.38-.25,1,1,0,0,0,.22-.4h0c.08-.38-.16-.6-.54-.48a1,1,0,0,0-.37.25,1.05,1.05,0,0,0-.23.4h0C383,318.56,383.25,318.77,383.63,318.66Z" transform="translate(-76.69 -56.66)"/><path class="cls-5" d="M376.93,325.84c.88-.81,1.7-1.68,2.52-2.55s1.62-1.76,2.37-2.69A.56.56,0,0,0,382,320c-.12-.16-.42-.11-.67.12-.87.82-1.69,1.69-2.52,2.56s-1.61,1.76-2.37,2.69a.56.56,0,0,0-.13.61C376.38,326.13,376.68,326.07,376.93,325.84Z" transform="translate(-76.69 -56.66)"/><polygon class="cls-33" points="258.26 314.49 261.89 301.67 300.29 301.67 302.39 314.49 258.26 314.49"/><circle class="cls-12" cx="248.28" cy="327.14" r="8.1"/><path class="cls-30" d="M329.83,383.81a4.87,4.87,0,1,1-4.87-4.87A4.87,4.87,0,0,1,329.83,383.81Z" transform="translate(-76.69 -56.66)"/><path class="cls-31" d="M321.76,382.92l2.78-7.32a1,1,0,0,1,.94-.66h9.66a1,1,0,0,1,.74,1.7L327.19,386a2.72,2.72,0,0,1-2.85.73l-.87-.28A2.73,2.73,0,0,1,321.76,382.92Z" transform="translate(-76.69 -56.66)"/><path class="cls-12" d="M326.83,383.81a1.87,1.87,0,1,1-1.87-1.87A1.87,1.87,0,0,1,326.83,383.81Z" transform="translate(-76.69 -56.66)"/><circle class="cls-12" cx="310.14" cy="327.14" r="8.1"/><path class="cls-30" d="M382,383.81a4.87,4.87,0,1,0,4.87-4.87A4.87,4.87,0,0,0,382,383.81Z" transform="translate(-76.69 -56.66)"/><path class="cls-31" d="M390,382.92l-2.77-7.32a1,1,0,0,0-.95-.66h-9.65a1,1,0,0,0-.74,1.7L384.6,386a2.72,2.72,0,0,0,2.85.73l.87-.28A2.72,2.72,0,0,0,390,382.92Z" transform="translate(-76.69 -56.66)"/><path class="cls-12" d="M385,383.81a1.87,1.87,0,1,0,1.86-1.87A1.86,1.86,0,0,0,385,383.81Z" transform="translate(-76.69 -56.66)"/><circle class="cls-20" cx="409.47" cy="299.38" r="14.78" transform="translate(-52.06 573.16) rotate(-76.82)"/><path class="cls-12" d="M410.78,294.05v11.58H413c.43,0,.62.31.62,1V307c0,.72-.19,1-.62,1h-8c-.43,0-.62-.3-.62-1v-.35c0-.72.19-1,.62-1h2.74v-9.24l-2.8.41c-.54,0-.66-1.15-.66-1.72a.57.57,0,0,1,.54-.58l5.12-.95C410.27,293.55,410.78,293.8,410.78,294.05Z" transform="translate(-76.69 -56.66)"/><polygon class="cls-34" points="258.02 227.82 258.02 242.25 292.11 243.14 292.11 226.34 258.02 227.82"/><polygon class="cls-35" points="292.11 226.34 292.11 243.14 308.35 243.66 308.35 229.28 292.11 226.34"/><polygon class="cls-20" points="257.03 225.09 292.9 223.63 292.9 228.32 257.03 229.81 257.03 225.09"/><polygon class="cls-34" points="292.9 228.32 309.53 231.16 309.53 226.72 292.9 223.63 292.9 228.32"/><ellipse class="cls-24" cx="179.24" cy="327.01" rx="49.29" ry="2.84"/><path class="cls-36" d="M279.73,351.13c.8,7.92,7.46,19.52,10,26,.76,1.91,4.37.84,4-1.17-1.39-6.85-2.34-20.71-3-27.79C290,339.83,279,343.59,279.73,351.13Z" transform="translate(-76.69 -56.66)"/><path class="cls-1" d="M289.87,377.08a7.37,7.37,0,0,0,.54,5.11c-.24.11-.06,1.09.37,1.29s4.16.19,4.9-.39a.78.78,0,0,0,0-.66s.91.35,3.51-.14a13.15,13.15,0,0,0,5-1.89c.31-.19.1-.88-.25-.77,0,0-.22-1.8-1.73-1.71a11.38,11.38,0,0,1-6.89-2,5.84,5.84,0,0,0-2.05-.9A3.51,3.51,0,0,0,289.87,377.08Z" transform="translate(-76.69 -56.66)"/><g class="cls-37"><path class="cls-38" d="M290.41,382.19a29.42,29.42,0,0,0,5.26-.08s5.92-.1,8.25-2.48a2.77,2.77,0,0,1,4.35.15l-9.69,7.72-6.33-.49-2.83-2.39S289.19,382.05,290.41,382.19Z" transform="translate(-76.69 -56.66)"/><path class="cls-4" d="M289.4,377.25a2.47,2.47,0,0,0,2.6,1.12c1.74-.37,1.92-1.45,1.52-3.31S287.57,374.43,289.4,377.25Z" transform="translate(-76.69 -56.66)"/></g><path class="cls-39" d="M253.81,294.43S265.2,314.92,269,323.29s8.53,29,8.53,29,9.36,2,14.27-2.42c0,0-1.58-21.82-4.25-31.62s-12.82-33.85-12.82-33.85C270.61,275.82,249.73,285.8,253.81,294.43Z" transform="translate(-76.69 -56.66)"/><path class="cls-30" d="M263.13,310.46a38.52,38.52,0,0,1,3.22-7.78c2-3.51,6.85-6.27,7.38-5.84.92.74-6.31,6.11-7.71,10,0,0,8.05-5.86,8.61-5.09S266.3,307.3,263.13,310.46Z" transform="translate(-76.69 -56.66)"/><path class="cls-8" d="M261.93,243.93c1.88,8.66,4.79,20.2,11.22,25.83s20.38,8.76,21.05,8.76c1.55.36,3.21-7.84,2-8.79S284,264.35,282,262.47c-3.49-3.36-2-23.82-5.95-28.28S259.74,233.84,261.93,243.93Z" transform="translate(-76.69 -56.66)"/><path class="cls-40" d="M297,271.21s4.89,4.06,5.18,5.17a5.3,5.3,0,0,1-.23,3.39c-.4.47-3.39,2-4.53,1.18a19.73,19.73,0,0,1-2.71-2.57l.54-2s-.37,1.37-3.33-.49S294.19,268.4,297,271.21Z" transform="translate(-76.69 -56.66)"/><path class="cls-36" d="M228.83,345.25c-5.9,5.35-11.27,17.59-14.93,23.51-1.08,1.74,1.92,4,3.29,2.49,4.68-5.18,15.27-14.19,20.59-18.9C244,346.8,234.45,340.16,228.83,345.25Z" transform="translate(-76.69 -56.66)"/><path class="cls-1" d="M214.56,368.16a7.34,7.34,0,0,0-4,3.24c-.22-.14-.94.55-.88,1s2.11,3.58,3,3.89c.32,0,.54-.38.54-.38s.21,1,2,2.87a13.27,13.27,0,0,0,4.31,3.17c.33.15.79-.41.51-.64,0,0,1.39-1.17.49-2.38a11.36,11.36,0,0,1-2.07-6.87,5.7,5.7,0,0,0-.37-2.21A3.51,3.51,0,0,0,214.56,368.16Z" transform="translate(-76.69 -56.66)"/><g class="cls-41"><path class="cls-38" d="M210.57,371.4a28.91,28.91,0,0,0,2.93,4.37s3.32,4.9,6.58,5.56a2.77,2.77,0,0,1,2.24,3.73l-11.75-3.92-3-5.57.46-3.67S210,370.3,210.57,371.4Z" transform="translate(-76.69 -56.66)"/><path class="cls-4" d="M214.16,367.87a2.45,2.45,0,0,0,.48,2.78c1.26,1.26,2.25.82,3.6-.53S215.53,364.79,214.16,367.87Z" transform="translate(-76.69 -56.66)"/></g><path class="cls-39" d="M241.75,286.75s1.58,30-1.79,37.9-12.14,20.68-12.14,20.68a13.5,13.5,0,0,0,11.29,8.52s13.4-9.43,18.65-23.72,9.67-30,7.54-41.67C264.1,281.91,243.44,277.17,241.75,286.75Z" transform="translate(-76.69 -56.66)"/><path class="cls-42" d="M245.67,286.47s.19,25-1,34.69c-1.13,9.4-15.57,26.68-15.57,26.68" transform="translate(-76.69 -56.66)"/><path class="cls-5" d="M275.38,234.88c2.31,4.6-1.81,22.08-1.81,29.71a124.55,124.55,0,0,0,1.93,20.51,2.43,2.43,0,0,1-1.14,2.66,30,30,0,0,1-11.26,3.49c-11.31,1.09-16.77-.9-19.34-1.87a3.14,3.14,0,0,1-2-3.4c.57-3.82,2.18-13.16.8-21.75-1.8-11.25-4.75-26.54.53-31.26s15.15-7.66,15.15-7.66S272.52,229.19,275.38,234.88Z" transform="translate(-76.69 -56.66)"/><path class="cls-30" d="M260.63,220.53s-2.54-.43-6-4.75c-2.28-2.83-5.45-15.65,4.61-17.59s13,4.86,13.47,9.3-4.53,8.11-6.79,9.71S260.63,220.53,260.63,220.53Z" transform="translate(-76.69 -56.66)"/><path class="cls-36" d="M258.18,215.36a29.63,29.63,0,0,1-1.46,6.92,11,11,0,0,1-3.82,5.24c-1.44,1.29,5.78,9,12.21,10.91,0,0,4.66-5.68,2.53-8.85s-3.84-3.45-3.07-7.68c.67-3.68,1.07-5.73,1.07-5.73Z" transform="translate(-76.69 -56.66)"/><path class="cls-43" d="M258.18,215.36s-.33,2.87.83,4.1,3.23,4.21,7.95,3.86c6.3-.46,3.86-10.47,3.86-10.47a22.47,22.47,0,0,0,0-7c-.66-3.16-6.91-4.82-12-3.27,0,0-1.46,1.39-.9,7.6a1.9,1.9,0,0,0-2.42-.32c-1.11.61-1.23,2.05-.85,3.41C255.11,214.9,256.82,216.3,258.18,215.36Z" transform="translate(-76.69 -56.66)"/><path class="cls-44" d="M257.65,214.76l-.55-1.47.94-.4s-.61-2.76-2.15-1.74C254.62,212,256.07,215.32,257.65,214.76Z" transform="translate(-76.69 -56.66)"/><path class="cls-30" d="M258.32,212.56a39.84,39.84,0,0,0-.53,5.62c.1,1.73,1.81,7.12,9.7,6.64s5-9,3.71-9.56a2.34,2.34,0,0,1-.78,1.87,2.1,2.1,0,0,0-2.53-1.09c-1.13-.63-2.41-.24-3.77.57l-1,.69a5,5,0,0,1-4-4.63Z" transform="translate(-76.69 -56.66)"/><path class="cls-5" d="M265.11,217.44s4.15,0,4.25.29-.5.84-2.12.84A2.24,2.24,0,0,1,265.11,217.44Z" transform="translate(-76.69 -56.66)"/><path class="cls-44" d="M265,217.37c.22-.12.2,0,.26-.06h.43l.58,0,1.17.05c.38,0,.77,0,1.16.08a4.09,4.09,0,0,1,.58.09.44.44,0,0,1,.15.05.18.18,0,0,1,.11.18.46.46,0,0,1-.16.29,3.37,3.37,0,0,1-2.26.56,2.57,2.57,0,0,1-1.15-.31,2.15,2.15,0,0,1-.5-.35l-.21-.22-.09-.13,0-.07,0,0v0S265,217.41,265,217.37Zm.23.15s0-.15,0-.12h0v0l0,.06.07.11a1.2,1.2,0,0,0,.17.21,1.58,1.58,0,0,0,.43.34,2.33,2.33,0,0,0,1.06.31,3.33,3.33,0,0,0,2.16-.47c.37-.37-.28-.3-.61-.36s-.77,0-1.15-.06l-1.16,0h-1S265.11,217.64,265.23,217.52Z" transform="translate(-76.69 -56.66)"/><path class="cls-30" d="M265.65,212.32c0,.35-.48.38-1,.33s-1-.15-1-.5.51-.59,1.07-.55S265.68,212,265.65,212.32Z" transform="translate(-76.69 -56.66)"/><path class="cls-30" d="M261.94,210.65a18.22,18.22,0,0,1,2.11-.5,13,13,0,0,0,2.6.13,2.85,2.85,0,0,0,.29-.84,22,22,0,0,0-3.17-.12A3.7,3.7,0,0,0,261.94,210.65Z" transform="translate(-76.69 -56.66)"/><path class="cls-30" d="M270.79,212.75c0,.35-.49.38-1.05.33s-1-.15-1-.5.51-.59,1.07-.55S270.82,212.4,270.79,212.75Z" transform="translate(-76.69 -56.66)"/><path class="cls-30" d="M271.51,211.45c0,.05-.69-.83-1-.9s-2,.08-2.11-.13a4.08,4.08,0,0,1-.08-.87,14.41,14.41,0,0,1,2.59.38A2.52,2.52,0,0,1,271.51,211.45Z" transform="translate(-76.69 -56.66)"/><path class="cls-45" d="M267.91,215.74s-1.3,0-1.27-.39,2.74-.75,2.89-.49S268.49,215.58,267.91,215.74Z" transform="translate(-76.69 -56.66)"/><path class="cls-44" d="M268.13,210.35a6.46,6.46,0,0,0-.18,2.21c.19.59,1.38,1.91,1.4,2.18s-1.34,1-1.44,1,1.95-.27,1.89-.91-1.59-2.24-1.64-2.55S268.13,210.35,268.13,210.35Z" transform="translate(-76.69 -56.66)"/><path class="cls-30" d="M258.89,213c.4-.27,1.06-2.62.36-4.87a2.81,2.81,0,0,1,2.08-3.64c1.29-.14,5.46,1,7.11.84,3.61-.44,6.41-1.51,6.41-2.18s-2.65,0-2.65,0,4-1,3.66-4.4a16.61,16.61,0,0,1-5.73-.7c-2.71-.93-9.19-2-12.63.55-2.26,1.68-3.86,7.13-.87,9.91C258,209.84,258.11,213.56,258.89,213Z" transform="translate(-76.69 -56.66)"/><path class="cls-46" d="M268.28,235s-1.72,34.21-1.34,37.43-.25,15.58,7.56,18c0,0-3.49-17.85-3-28.57S268.28,235,268.28,235Z" transform="translate(-76.69 -56.66)"/><path class="cls-6" d="M265.79,227.21A87.12,87.12,0,0,1,269,251.88c-.18,14-.75,42.61,9.58,41.95,0,0-4.35-17.6-4.09-24s3.73-29.89,2.46-33.91C275.07,230.09,265.79,227.21,265.79,227.21Z" transform="translate(-76.69 -56.66)"/><path class="cls-6" d="M253.93,226.7s7,10.91,9.2,29.39c1.06,8.81-.13,22.77-1.46,31.68-1.53,10.26-21.62,10.24-22.91,7.55s4.47-19.73,2.67-29.42-2.85-25.49-.71-30.7S253.93,226.7,253.93,226.7Z" transform="translate(-76.69 -56.66)"/><path class="cls-47" d="M243.85,245.22s3.42,16.49,3,25.22-3.21,26.36-3.21,26.36" transform="translate(-76.69 -56.66)"/><path class="cls-8" d="M241.45,236.53a16.14,16.14,0,0,0-.91,4.31c1.88,14.38,10,30.5,22.39,36.29a140.31,140.31,0,0,0,.59-14C255.2,254.81,248.83,244,244,233.41A8.28,8.28,0,0,0,241.45,236.53Z" transform="translate(-76.69 -56.66)"/><path class="cls-36" d="M290.1,274.08s6.19,1.45,6.95,2.31,2,3.8,1.87,4.39-3.42,1.89-4.8,1.7a10.56,10.56,0,0,1-2.86-1c.2-.73.15-1.39-.61-1.63s-1.66.19-3.06.82C284.4,282.14,286.33,272.82,290.1,274.08Z" transform="translate(-76.69 -56.66)"/><path class="cls-4" d="M240.44,244.11c1.67,9.22,13.47,23,18.52,27.32,4.43,3.8,26.29,10.25,27.25,10.3,2.24.47,5.09-7.59,3.35-8.63s-21.22-10-23.33-12.35-9.85-23.19-15.35-27.95S238.56,233.69,240.44,244.11Z" transform="translate(-76.69 -56.66)"/><path class="cls-48" d="M596.09,229.26c9-12.91,18.2-10.11,21.59-4.66s1,13.52-6.12,20.21c-5.07,5.08-15.23,8.62-23.39,10.56-5.7-6.14-12.18-14.72-13.58-21.77-2.17-9.48.28-17.57,6.12-20.21S595.8,213.55,596.09,229.26Z" transform="translate(-76.69 -56.66)"/><g class="cls-49"><path class="cls-50" d="M617.68,224.6c-2.9-4.65-10.06-7.37-17.67,0,6.48-5.11,15.77-5.21,16.58,4.14.86,9.81-7,16.52-16.07,14.81-11.88-2.25-9-12.22-14.61-17.1-4.42-3.72-9.65,1.9-9.89,6.5a27.92,27.92,0,0,0,.47,6.16c2.68,5.68,7.4,11.67,11.68,16.28,8.16-1.94,18.32-5.48,23.39-10.56C618.63,238.12,621.08,230,617.68,224.6Z" transform="translate(-76.69 -56.66)"/></g><ellipse class="cls-24" cx="409.79" cy="326.02" rx="49.29" ry="2.84"/><path class="cls-2" d="M495.55,371.58a28.53,28.53,0,0,1,2.39,2.29c.34.5,1.65,4.23,1.65,4.23a3.18,3.18,0,0,1-2,1.42l-1.66-2.14s-.85,3.74-1.71,4.95c-1,1.46-7,3.15-7.85,2.71,0,0-1.09-2.18.77-3.37,3.43-2.2,3.51-6.82,3.51-6.82A3.24,3.24,0,0,1,495.55,371.58Z" transform="translate(-76.69 -56.66)"/><g class="cls-51"><path class="cls-19" d="M485.62,384.71c.1-.06,7.59-1.07,8.48-3.28.69-1.73,1.15-4.64,1.55-5s2.29-2.58,2.29-2.58l3,5.22-11.28,9.49Z" transform="translate(-76.69 -56.66)"/></g><path class="cls-52" d="M489.21,379.73l1,.21a3.41,3.41,0,0,0,.66-1.89l-1-.35a.35.35,0,0,0-.44.21l-.5,1.35A.36.36,0,0,0,489.21,379.73Z" transform="translate(-76.69 -56.66)"/><path class="cls-29" d="M482.39,268.25c0-.36-9.51,41.87-9.17,53.22.21,7.07,13.44,39.62,17.38,53.38.76,2.64,4.87-.46,4.54-3.2-1.54-13.17-1.45-20.09-7.26-48.71-.9-4.45,15.09-44.39,13.82-53.75S487.39,254.74,482.39,268.25Z" transform="translate(-76.69 -56.66)"/><path class="cls-53" d="M501.7,269.19c-1.26-9.36-14.31-14.45-19.31-.94,0-.34-8.61,37.86-9.15,51.35,4.27-3.24,9.94-1.53,14.84,1C490,310.9,502.84,277.63,501.7,269.19Z" transform="translate(-76.69 -56.66)"/><path class="cls-2" d="M509.18,374.32a28,28,0,0,1,1.41,3c.14.59.05,4.53.05,4.53a3.13,3.13,0,0,1-2.43.6l-.79-2.58a10.8,10.8,0,0,1-2.45,3.35c-1.49,1-6.79,2.23-7.68,1.79,0,0-1.23-2.37.74-3.37,4.92-2.53,5.36-6,5.36-6A3.24,3.24,0,0,1,509.18,374.32Z" transform="translate(-76.69 -56.66)"/><g class="cls-54"><path class="cls-19" d="M496.68,384.77c.12,0,6.18-.59,7.63-1.75s2.73-3.93,3.23-4.11,3-1.59,3-1.59l1,5.94-13.92,4.86Z" transform="translate(-76.69 -56.66)"/></g><path class="cls-52" d="M500.59,380.05l.88.57a3.46,3.46,0,0,0,1.29-1.54l-.81-.68a.35.35,0,0,0-.49,0l-.94,1.08A.36.36,0,0,0,500.59,380.05Z" transform="translate(-76.69 -56.66)"/><path class="cls-29" d="M491.75,271c-.07,3.68.49,42.88,3.89,53.61,2.11,6.69,6.56,38.78,8.06,49.75.55,4,4.89,4,5.21.18,1.17-14.2,5.76-33.95.55-51.31-1.31-4.33,4.73-49.09,1-57.61S492,257.38,491.75,271Z" transform="translate(-76.69 -56.66)"/><path class="cls-53" d="M509.27,320.3c.12-11.07,4.5-47.15,1.18-54.71-3.74-8.53-18.42-8.21-18.7,5.38-.07,3.39.41,36.86,3.13,50.53C499.13,319.11,504.48,318.91,509.27,320.3Z" transform="translate(-76.69 -56.66)"/><path class="cls-2" d="M482.81,263.66l-.42,3.85s-6.9,17.48-9.87,45.85c7.36-2,21.25,4.76,41.85,1.87,0,0,8.14-36.34-6-52.5S483.56,255.1,482.81,263.66Z" transform="translate(-76.69 -56.66)"/><path class="cls-19" d="M482.84,267.36s-.55,5.44,8.86,6.4,18.75-5.84,18.52-7.84S482.84,267.36,482.84,267.36Z" transform="translate(-76.69 -56.66)"/><path class="cls-55" d="M506.07,264.67s10.78,17.93,4.15,49.94" transform="translate(-76.69 -56.66)"/><path class="cls-29" d="M444.49,253.4a36.16,36.16,0,0,0-4.65-.06,24.12,24.12,0,0,0-2.69,1.18c-1.08.54,0,1.32.79,1.24a14.32,14.32,0,0,1,2.07-.23,4.2,4.2,0,0,1,.7.18,16.63,16.63,0,0,1-3.57,2.13c-.76.3-1.46.5-2.57.86-.49.16-.41.81.15.91a6.76,6.76,0,0,0,3-.37c.48-.18,1-.38,1.4-.59a9.8,9.8,0,0,1-1.52.88c-.73.33-1.46.47-2.52.86-.49.18-.36.74.21.82a4.85,4.85,0,0,0,.81.05c-.2.26-.06.66.39.72a5.06,5.06,0,0,0,1.2-.1.48.48,0,0,0,.43.28c4,0,6.35-2.16,8.52-2.67C450.08,256,447.08,253.89,444.49,253.4Z" transform="translate(-76.69 -56.66)"/><path class="cls-39" d="M490.72,225.08c-2.7-1.54-7.31-2-10.94,3.14s-5.24,17.35-9.09,21.47c-2.3,2.46-23.15,3.17-24.64,3.91-1,.48-.39,5.13-.07,6,.66,1.8,23.24,2.76,29.38.34S496.52,228.37,490.72,225.08Z" transform="translate(-76.69 -56.66)"/><path class="cls-30" d="M482,202c.17-1.89.16-5,2.41-7.76s11-5.45,15.62-2.27c5.65,3.92,3.81,7.58,10.86,10.43s4.91,6,2.9,9.21-1.31,3.76,2,7.13,7.58,11.79,0,16.59-24,1.65-30.57-4.68,1.18-10.51-.64-14.29-4-2.94-4-7C480.55,206.36,481.73,204.94,482,202Z" transform="translate(-76.69 -56.66)"/><path class="cls-39" d="M496.21,220.58s-14.95,2.5-15.45,7.06c-.21,1.91,2.4,5.77,1.72,7.73-1,2.86-2.55,4.52.34,11.32,2.34,5.49-1.67,16.87-1.55,18.22.46,5.06,8.48,6,11.77,5.91,4.7-.11,18.19-3.13,18.19-6.09,0-2.56-6.25-8.07-6.85-12.47s10.83-22,8.56-25.83C508.54,219,496.21,220.58,496.21,220.58Z" transform="translate(-76.69 -56.66)"/><path class="cls-29" d="M510.56,267.73a34.72,34.72,0,0,0-4.45,1.37,22.66,22.66,0,0,0-2.2,1.94c-.86.85.37,1.27,1.13.95a13.94,13.94,0,0,1,1.9-.86,3.64,3.64,0,0,1,.72,0,17.21,17.21,0,0,1-2.74,3.12c-.64.52-1.24.92-2.19,1.6-.42.3-.14.9.43.83a6.85,6.85,0,0,0,2.71-1.27c.4-.32.8-.66,1.15-1a10.13,10.13,0,0,1-1.18,1.29c-.59.54-1.25.89-2.14,1.59-.41.32-.11.82.46.73.15,0,.43-.1.78-.21-.11.31.14.65.59.57a5.56,5.56,0,0,0,1.12-.46.51.51,0,0,0,.49.13c2.36-.54,6.39-3.93,7.3-5.15C516.67,268.49,513.17,267.41,510.56,267.73Z" transform="translate(-76.69 -56.66)"/><path class="cls-39" d="M507.29,222.75c-2.41,1.95-4.57,6.06-1.09,11.33S519.6,244.85,522,250c1.45,3-12,16.07-12,17.73s2.52,5.7,3.5,6.18c1.72.83,20.55-17.44,20.55-24S512.48,218.56,507.29,222.75Z" transform="translate(-76.69 -56.66)"/><path class="cls-29" d="M498.49,209.05a29.9,29.9,0,0,0,1.45,6.91,11.13,11.13,0,0,0,3.83,5.25c1.44,1.29-5.78,9-12.21,10.91,0,0-4.67-5.69-2.53-8.85s3.83-3.45,3.07-7.68c-.67-3.68-1.07-5.73-1.07-5.73Z" transform="translate(-76.69 -56.66)"/><path class="cls-5" d="M488.55,211c0,1.81-.74,3.29-1.66,3.29s-1.66-1.48-1.66-3.29a4.45,4.45,0,0,1,.85-2.86c.16-.2,0-.36-.2-.15a4.69,4.69,0,0,0-.9,3c0,2,.84,3.54,1.91,3.54S488.8,213,488.8,211a4.86,4.86,0,0,0-.53-2.48c0,.05-.14.13-.19.18A5,5,0,0,1,488.55,211Z" transform="translate(-76.69 -56.66)"/><path class="cls-56" d="M498.49,209.05s-1,7.9-8.46,7.34c-3.73-.28-5.63-7.93-4.18-9.85a22.14,22.14,0,0,1,0-7c.66-3.16,6.91-4.82,12-3.27,0,0,1.46,1.39.9,7.6a1.89,1.89,0,0,1,2.41-.32c1.12.61,1.24,2.05.86,3.41C501.55,208.58,499.85,210,498.49,209.05Z" transform="translate(-76.69 -56.66)"/><path class="cls-44" d="M499,208.45l.55-1.48-.95-.39s.62-2.76,2.16-1.74C502,205.67,500.6,209,499,208.45Z" transform="translate(-76.69 -56.66)"/><path class="cls-5" d="M501.38,211c0,1.81-.74,3.29-1.66,3.29s-1.67-1.48-1.67-3.29a4.45,4.45,0,0,1,.86-2.86c.15-.2-.05-.36-.2-.15a4.63,4.63,0,0,0-.9,3c0,2,.84,3.54,1.91,3.54s1.91-1.56,1.91-3.54a4.86,4.86,0,0,0-.53-2.48c0,.05-.15.13-.19.18A5.17,5.17,0,0,1,501.38,211Z" transform="translate(-76.69 -56.66)"/><path class="cls-2" d="M488.07,211.46s.51-1.23,4.4-.83C492,212.69,488.38,213.71,488.07,211.46Z" transform="translate(-76.69 -56.66)"/><g class="cls-57"><path class="cls-44" d="M488.07,211.46a13.13,13.13,0,0,0,4.4-.83" transform="translate(-76.69 -56.66)"/><path class="cls-44" d="M488.07,211.46a32.51,32.51,0,0,0,4.4-.83,6.78,6.78,0,0,1-2.14.73A8.15,8.15,0,0,1,488.07,211.46Z" transform="translate(-76.69 -56.66)"/></g><path class="cls-30" d="M485.88,206.44c0,.35.48.38,1.05.33s1-.15,1-.5-.51-.6-1.07-.55S485.85,206.09,485.88,206.44Z" transform="translate(-76.69 -56.66)"/><path class="cls-30" d="M484.71,205c0,.05,1.3-1.12,1.66-1.1s1.66.51,1.8.32a2.59,2.59,0,0,0,.25-.58,10,10,0,0,0-2.24-.22A4,4,0,0,0,484.71,205Z" transform="translate(-76.69 -56.66)"/><path class="cls-30" d="M491,206c0,.35.49.38,1.05.33s1-.15,1-.5-.5-.6-1.06-.55S491,205.66,491,206Z" transform="translate(-76.69 -56.66)"/><path class="cls-30" d="M494.34,203.78a9.39,9.39,0,0,0-2.18-.57c-.44.11-1.86.83-2.05.68a2.38,2.38,0,0,1-.4-.51,15.62,15.62,0,0,1,2.58-.68A4,4,0,0,1,494.34,203.78Z" transform="translate(-76.69 -56.66)"/><path class="cls-45" d="M488.76,209.43s1.3,0,1.27-.4-2.74-.74-2.89-.49S488.18,209.27,488.76,209.43Z" transform="translate(-76.69 -56.66)"/><path class="cls-44" d="M488.54,204a6.46,6.46,0,0,1,.18,2.21c-.19.59-1.38,1.9-1.41,2.18s1.35,1,1.45,1-2-.27-1.89-.91,1.58-2.24,1.64-2.56S488.54,204,488.54,204Z" transform="translate(-76.69 -56.66)"/><path class="cls-30" d="M496.21,196.83c-6.18.65-8.93,6.47-13.45,6.48-2.81-4.87,5.76-17.24,15.86-7.64,4.64,4.4.46,7.77.46,7.77l-1,3.56s.09-2.67-.86-3.69A5.82,5.82,0,0,1,496.21,196.83Z" transform="translate(-76.69 -56.66)"/><path class="cls-58" d="M435.89,162.45,390.15,151.2h0l-5.79-1.43a4.2,4.2,0,0,0-5.08,3.08l-4.55,18.46h0l-.26,1.05-2.07,8.45a4.2,4.2,0,0,0,3.07,5.08l50.71,12.48a4.21,4.21,0,0,0,5.09-3.07l.6-2.47h0l1.73-7h0l2.53-10.25h0l2.22-9A3.36,3.36,0,0,0,435.89,162.45Z" transform="translate(-76.69 -56.66)"/><rect class="cls-34" x="374.14" y="153.8" width="60.63" height="37.19" rx="4.2" transform="translate(-23.77 -148.32) rotate(13.83)"/><path class="cls-20" d="M381.94,158.17c-1.72,4.61-1.15,10.93,3.45,13.23,16.49,9.82,34,8.95,49.92,2.48l2.22-9a3.36,3.36,0,0,0-2.46-4.06l-45.74-11.26A18.54,18.54,0,0,0,381.94,158.17Z" transform="translate(-76.69 -56.66)"/><rect class="cls-12" x="372.17" y="176.78" width="60.63" height="7.24" transform="matrix(0.97, 0.24, -0.24, 0.97, -21.91, -147.62)"/><rect class="cls-12" x="380.13" y="154.17" width="21.69" height="3.62" rx="1.69" transform="translate(-28.08 -145.58) rotate(13.83)"/><rect class="cls-12" x="378.82" y="161.4" width="37.8" height="1.81" rx="0.84" transform="translate(-26.37 -147.01) rotate(13.83)"/><rect class="cls-5" x="405.81" y="171.52" width="3.55" height="2.55" rx="1.18" transform="translate(-23.59 -149.05) rotate(13.82)"/><rect class="cls-5" x="410.19" y="172.6" width="3.55" height="2.55" rx="1.18" transform="translate(-23.2 -150.07) rotate(13.83)"/><rect class="cls-5" x="414.58" y="173.68" width="3.55" height="2.55" rx="1.18" transform="translate(-22.82 -151.09) rotate(13.83)"/><path class="cls-2" d="M427,163.36a3.94,3.94,0,1,0-1.3,5.27,3.91,3.91,0,0,1-.41-2.9A3.87,3.87,0,0,1,427,163.36Z" transform="translate(-76.69 -56.66)"/><path class="cls-2" d="M430,162.85a3.91,3.91,0,0,0-3.06.51,3.92,3.92,0,0,1-1.3,5.27,3.94,3.94,0,1,0,4.36-5.78Z" transform="translate(-76.69 -56.66)"/></g></g></svg>