<svg id="Слой_1" data-name="Слой 1" xmlns="http://www.w3.org/2000/svg" viewBox="0 0 2881.01 1470.75"><defs><style>.cls-1{fill:#ebf3fa;}.cls-2{fill:#a4c8fc;}.cls-3{fill:#ffb93e;}.cls-4{fill:#ffa412;}.cls-5{fill:#b4c9f7;}.cls-6{fill:#9bb8ea;}.cls-7{fill:#2e3552;}.cls-8{fill:#ea8e50;}.cls-9{fill:#1e3d70;}.cls-10{fill:#233862;}.cls-11{fill:#e2810e;}.cls-12{fill:#2b478b;}.cls-13{fill:#683615;}.cls-14{fill:#d2e3fc;}.cls-15{fill:#ffb07b;}.cls-16{fill:#3a1e0a;}.cls-17{fill:#9e4d16;}.cls-18{fill:#723308;}.cls-19{fill:#fff;}.cls-20{fill:#ebf3ff;}.cls-21{fill:#f99746;}.cls-22{fill:#ed7d2b;}.cls-23{fill:#739af0;}.cls-24{fill:#618dd8;}.cls-25{fill:#ffb27d;}.cls-26{fill:#2c3a64;}.cls-27{fill:#ed985f;}.cls-28{fill:#c94c43;}.cls-29{fill:#b23b38;}.cls-30{fill:#afcdfb;}.cls-31{fill:#dfedfb;}.cls-32{fill:#cde3fd;}</style></defs><title>invest</title><path class="cls-1" d="M373.21,1481.24s-348.38-349.56-58.92-728c256.83-335.78,556.27-312.83,776-176.57,93.57,58,363.34,7.16,593-334.51C1996.33-223.78,3081.74,58.81,2883.83,775.68,2788.06,1122.59,3175.3,1135.2,2978,1482Z" transform="translate(-187.99 -14.08)"/><path class="cls-2" d="M1926.82,1334.6c0-.2,1.1-22.77-9.8-28l.77-.73c5,1.74,10.53,7.13,12.74,14.75,1.65,5.65.4,6.9.41,7.11Z" transform="translate(-187.99 -14.08)"/><path class="cls-2" d="M1854.54,1276.1s3.73,29.06,21.45,37.56,42.72-6.76,42.72-6.76-3.73-29.06-21.45-37.56S1854.54,1276.1,1854.54,1276.1Z" transform="translate(-187.99 -14.08)"/><path class="cls-2" d="M1925,1376.94c-.2-1.13-4.14-27.72,5.92-57.34,9.67-28.47,4.32-52.6,4.28-52.84h7.11c.18,1,.68,24.72-6.9,57.18-6.82,29.21,5.91,53,3.2,53Z" transform="translate(-187.99 -14.08)"/><path class="cls-2" d="M1939.9,1298.46c0-.15,3.43-19.63,12.57-21.84h0a17,17,0,0,0-12.18,8.9c-2.15,4-1.4,5.19-1.44,5.35Z" transform="translate(-187.99 -14.08)"/><path class="cls-2" d="M1969.22,1300.48c-13.66-2.76-21.28-22.07-21.28-22.07s14.52-14.85,28.18-12.09,21.27,22.07,21.27,22.07S1982.87,1303.24,1969.22,1300.48Z" transform="translate(-187.99 -14.08)"/><path class="cls-3" d="M1863.14,1237.54a71.58,71.58,0,1,1,99.15,20.41A71.59,71.59,0,0,1,1863.14,1237.54Z" transform="translate(-187.99 -14.08)"/><path class="cls-4" d="M1959.26,1253.34a65.23,65.23,0,1,1,28-41.32A64.81,64.81,0,0,1,1959.26,1253.34Zm-69.61-105.68a61.33,61.33,0,1,0,84.95,17.48A61.4,61.4,0,0,0,1889.65,1147.66Z" transform="translate(-187.99 -14.08)"/><path class="cls-4" d="M1941.29,1209.74a10.63,10.63,0,0,0-2.21-3.07,7.84,7.84,0,0,0-3.06-1.75,14.77,14.77,0,0,0-4.23-.6,39.69,39.69,0,0,0-5.67.41,102.42,102.42,0,0,1-10.42.84,32.51,32.51,0,0,1-8.79-.89,19,19,0,0,1-7.12-3.45,21.6,21.6,0,0,1-7.51-14.57,18.11,18.11,0,0,1,1.13-7.47,22.7,22.7,0,0,1,4.15-6.86,30.33,30.33,0,0,1,7-5.84l-4.85-9.68,7.79-3.9,4.92,9.82a26.82,26.82,0,0,1,8.7-1.59,20.47,20.47,0,0,1,14.81,5.91,27.17,27.17,0,0,1,5.38,7.52l-14.07,7c-1.82-3.62-4-5.92-6.48-6.91a9.21,9.21,0,0,0-7.8.54,11.8,11.8,0,0,0-3.47,2.5,7.88,7.88,0,0,0-1.76,3,7.49,7.49,0,0,0-.26,3.27,11,11,0,0,0,1.08,3.36,10,10,0,0,0,2,2.79,7.44,7.44,0,0,0,2.93,1.67,14.94,14.94,0,0,0,4.25.58,48.77,48.77,0,0,0,6-.35q5.61-.6,10.41-.68a32.82,32.82,0,0,1,8.78.94,18.48,18.48,0,0,1,12.47,10.31,19.62,19.62,0,0,1,2.19,7.84,17.88,17.88,0,0,1-1.18,7.43,21.6,21.6,0,0,1-4.25,6.77,32.9,32.9,0,0,1-7,5.8l4.5,9-7.74,3.87-4.48-9a36.68,36.68,0,0,1-8.7,2.15,23,23,0,0,1-8.65-.56,20.7,20.7,0,0,1-7.91-4.1,25.44,25.44,0,0,1-6.42-8.44l14.08-7.05a15.49,15.49,0,0,0,3.58,4.91,10.12,10.12,0,0,0,4.13,2.23,9.64,9.64,0,0,0,4.34.09,17.1,17.1,0,0,0,4.18-1.44,13.88,13.88,0,0,0,3.72-2.6,9.27,9.27,0,0,0,2.08-3.08,7.29,7.29,0,0,0,.52-3.35A9,9,0,0,0,1941.29,1209.74Z" transform="translate(-187.99 -14.08)"/><polygon class="cls-5" points="1808.51 1355.94 1808.51 1356 1807.08 1377.93 1801.78 1459.34 1702.71 1459.34 1696.88 1379.04 1695.27 1356.91 1695.2 1355.94 1808.51 1355.94"/><path class="cls-6" d="M1996.49,1370.09l-1.43,21.92a173.57,173.57,0,0,0-55.22-8.84c-34.13,0-55,10-55,10l-1.61-22.13Z" transform="translate(-187.99 -14.08)"/><polygon class="cls-5" points="1811.95 1367.53 1691.61 1367.53 1690.23 1353.54 1813.48 1353.54 1811.95 1367.53"/><polygon class="cls-5" points="1803.3 1463.69 1700.58 1463.69 1699.4 1458.81 1804.61 1458.81 1803.3 1463.69"/><rect class="cls-7" y="1463.11" width="2881.01" height="7.64" rx="3.26"/><path class="cls-8" d="M2611.62,953.57l-9.62,7.81s-26.31-9.43-32.25,21.83c0,0-1.58,13.33,6.86,13.35s5-1.45,16.91-1.1,21.86-6,23.61-15.65l5.72-8.22Z" transform="translate(-187.99 -14.08)"/><path class="cls-9" d="M2612.71,970.33c-7.68-8-7.06-13.93-7.06-13.93s88.86-72.75,97.87-78.68c6.14-4,71.58-62.06,102.18-97.42,15.17-17.55,34-10.74,55.47-4.57l17.71,5.08c21.38,6.13,26.94,36,9.4,50.57-49.42,40.93-131.62,87-147,96.64-38.18,24-112.92,52.56-112.92,52.56A47.39,47.39,0,0,1,2612.71,970.33Z" transform="translate(-187.99 -14.08)"/><path class="cls-10" d="M2511.3,1417.31s-21.57,16.15-54.61,7.62c0,0-26.64-6.07-32.48,7.21,0,0,40.86,20.76,51.19,26.44,7.8,4.28,15.93,11,21.68,16.25a10.71,10.71,0,0,0,15.51-1.2c1.8-2.21,3.86-4.84,6.11-7.89,6.3-8.54,21-36.12,21-36.12Z" transform="translate(-187.99 -14.08)"/><circle class="cls-11" cx="2606.56" cy="827.03" r="150.78" transform="translate(1247.08 3283.92) rotate(-82.24)"/><circle class="cls-3" cx="2619.71" cy="827.03" r="150.78" transform="translate(-5.49 2080.56) rotate(-45)"/><path class="cls-4" d="M2522.57,926a137.37,137.37,0,1,1,97.14,40.24A136.5,136.5,0,0,1,2522.57,926Zm-32-97.14a129.18,129.18,0,1,0,129.18-129.18A129.33,129.33,0,0,0,2490.53,828.81Z" transform="translate(-187.99 -14.08)"/><path class="cls-4" d="M2603,875.77a15.58,15.58,0,0,0,4.78,5.28,19.5,19.5,0,0,0,7.23,3,29.13,29.13,0,0,0,9.56.26,35.25,35.25,0,0,0,9-2.3,20.56,20.56,0,0,0,7.52-5.19,21.16,21.16,0,0,0,4.69-8.71,32.76,32.76,0,0,0,.62-12.78l32.92-3.91q1.5,12.69-1.52,22.28a43.58,43.58,0,0,1-9.15,16.38,49,49,0,0,1-14.57,11,77,77,0,0,1-17.79,6.29l2.48,21-18.11,2.15-2.5-21.05a69,69,0,0,1-19.12-2,46.25,46.25,0,0,1-15.33-7,37.66,37.66,0,0,1-10.68-11.71,45.62,45.62,0,0,1-3.76-34.53,40.8,40.8,0,0,1,8.52-14.37A69.13,69.13,0,0,1,2592.21,828q8.55-5.4,19.1-10.85a104.09,104.09,0,0,0,10.87-6.28,31.54,31.54,0,0,0,6.8-6,15.5,15.5,0,0,0,3.23-6.34,21,21,0,0,0,.3-7.22,22.9,22.9,0,0,0-2-7.17,15.46,15.46,0,0,0-4.22-5.45,16.63,16.63,0,0,0-6.56-3.19,24.79,24.79,0,0,0-9-.39q-9.45,1.13-14.35,8.09T2593,802.87l-32.92,3.91a57.73,57.73,0,0,1,.75-19.46,43.13,43.13,0,0,1,19.2-27.55,57,57,0,0,1,17.16-7.29l-2.73-23,18.23-2.16,2.68,22.64a63.37,63.37,0,0,1,19,2.2,47.79,47.79,0,0,1,15.24,7.25,38.26,38.26,0,0,1,10.65,11.83,45.46,45.46,0,0,1,3.67,34.33,40.3,40.3,0,0,1-8.53,14.32A68.31,68.31,0,0,1,2641,831.67a217,217,0,0,1-19.3,10.61,82.09,82.09,0,0,0-10.45,5.85,31.12,31.12,0,0,0-6.74,6,16.61,16.61,0,0,0-3.38,6.63,22.82,22.82,0,0,0-.32,8A19,19,0,0,0,2603,875.77Z" transform="translate(-187.99 -14.08)"/><path class="cls-12" d="M2498.64,1409.1s13.13,30.28,43.44,24.71c0,0,61.85-51.08,104.28-104.14,13.78-17.24,25.51-34.68,32.41-50.64,28.13-65.14,104.07-162.29,152.35-211.54l-120.8-43.69s-38.69,77.83-90.17,173.43C2583.05,1266.11,2539.32,1344.22,2498.64,1409.1Z" transform="translate(-187.99 -14.08)"/><path class="cls-10" d="M2620.15,1197.23l26.21,132.44c13.78-17.24,25.51-34.68,32.41-50.64,28.13-65.14,104.07-162.29,152.35-211.54l-120.8-43.69S2671.63,1101.63,2620.15,1197.23Z" transform="translate(-187.99 -14.08)"/><path class="cls-10" d="M2718.89,1434.88s1.32,24.16-28,27.38c0,0-16.74.09-16.79,15.47l85.13.27s2.47-6.21,3.07-19.49c.46-10.2-9.89-36.87-9.89-36.87Z" transform="translate(-187.99 -14.08)"/><path class="cls-12" d="M2749.94,1023.8s-53.81,59.13-88,165.66c-18.58,58,34.07,203.68,44.33,254.31,0,0,35.32,3,59.47-6.34,0,0,1.84-104.57-12.29-185.17-7.9-45.11,70.85-96.48,105.27-178,23.41-55.45-5.07-54.51-40.07-55.84Z" transform="translate(-187.99 -14.08)"/><path class="cls-13" d="M2812.06,760c29.94,16.91,91.24,1.31,91.24,1.31s-24.89-28.45-13.58-74.28L2866.21,699,2841,711.78a210.84,210.84,0,0,0-2.77,22.63c-.29,3.75-.55,7.93-.73,12.5A78.62,78.62,0,0,0,2812.06,760Z" transform="translate(-187.99 -14.08)"/><path class="cls-14" d="M2702.28,1020.74c0,5.26,6.06,7.78,7.35,8,12.08,2.21,45.79,15.32,76.17,18.33,25.57,2.68,49.32.13,75.41-5.1,3.45-.7,11.56-2.88,12.14-6.19.71-3.62,100.62-203.67,23-289.6-1.83-2-17.16,1.62-31.18,4.94a57.6,57.6,0,0,1-35.43-2.89l-13.15,6.92c-16.14,9-46.69,41-50.27,66-1.81,12.76-9.11,22.2-11.22,33.42q-1.17,6.23-2.4,12.16-2.38,11.63-4.91,22.13c-4.57,19-9.39,35.3-14.13,49.41-5,15-10,27.44-14.39,37.86-5.73,13.52-10.57,23.62-13.59,31.35C2703.5,1013,2702.28,1017.28,2702.28,1020.74Z" transform="translate(-187.99 -14.08)"/><path class="cls-2" d="M2705.64,1007.56c141-66.44,189.87-194,189.87-194s-114.58,42.26-142.85,53.27q-2.38,11.63-4.91,22.13c-4.57,19-9.39,35.3-14.13,49.41-5,15-10,27.44-14.39,37.86C2713.5,989.73,2708.66,999.83,2705.64,1007.56Z" transform="translate(-187.99 -14.08)"/><path class="cls-15" d="M2623.13,969.06l-12.19,4.47s-24.4-17.26-39.6,10.81c0,0-5.49,12.25,3.21,14.92s5.53.15,17.76,4.23,24.27,1.13,28.89-7.6l8.29-6.08Z" transform="translate(-187.99 -14.08)"/><path class="cls-14" d="M2613.1,986.29l-6.56-17.08s92.08-75.06,101.46-81.49c6.39-4.39,70.05-52,101.08-89.05a65,65,0,0,1,63.14-21.88l19.33,4.05c23.34,4.9,30.93,34.44,12.82,50-51,43.71-137,94.42-153,105-39.81,26.19-127.87,62.87-127.87,62.87S2616.64,995.53,2613.1,986.29Z" transform="translate(-187.99 -14.08)"/><path class="cls-16" d="M2838.19,734.41c29.44,1.65,48.59-22.65,48.59-22.65s-13.31-7.38-20.57-12.8L2841,711.78A210.84,210.84,0,0,0,2838.19,734.41Z" transform="translate(-187.99 -14.08)"/><path class="cls-13" d="M2825.65,704.18s44.61,32,64.12,3.93,38.4-42.87,10.74-64.5-40.69-14.79-49.48-7S2814.54,695.13,2825.65,704.18Z" transform="translate(-187.99 -14.08)"/><path class="cls-10" d="M2846.31,611.24a71.69,71.69,0,0,1,5.2-18.39s2.8,11.59,24,10,54.79,2.09,66,26.24c.72,1.53,1.35,3.12,1.92,4.73,2-5.35,2.51-13.37,2.51-13.37,4,10.39,0,23.4,0,23.4h0c.06.38.11.76.16,1.14,4.68,3.95,8.61,16.24,8.61,16.24-1.41-3.42-4.86-5.66-7.92-7,.09,18.79-7.53,37.16-20.91,42.63-19.56,8-19.4,1.9-39.07,15,0,0-5.28-6.55-1.68-11s17.2-10.8,9.6-17.19-10.4.8-13.2-3.6,11.2-17.2-6.79-29.19S2844.71,622,2846.31,611.24Z" transform="translate(-187.99 -14.08)"/><path class="cls-3" d="M925.54,1453.13v17.42a5.91,5.91,0,0,1-1.37,3.75,8,8,0,0,1-3.75,2.52,8.86,8.86,0,0,1-1.46.34,9.39,9.39,0,0,1-1.42.11H587c-4.26,0-7.77-2.84-8-6.37,0-.12,0-.23,0-.35v-17.42c0-.12,0-.23,0-.35.22-3.53,3.73-6.37,8-6.37H917.54a9.39,9.39,0,0,1,1.42.11,8.56,8.56,0,0,1,5.21,2.86A5.91,5.91,0,0,1,925.54,1453.13Z" transform="translate(-187.99 -14.08)"/><path class="cls-4" d="M763.24,1477.27H586.17a7,7,0,0,1-7.13-6.37c0-.12,0-.23,0-.35v-17.42c0-.12,0-.23,0-.35a7,7,0,0,1,7.13-6.37H741.5A54.09,54.09,0,0,0,763.24,1477.27Z" transform="translate(-187.99 -14.08)"/><rect class="cls-4" x="693.58" y="1432.33" width="3.76" height="30.86"/><rect class="cls-4" x="680.87" y="1432.33" width="3.76" height="30.86"/><rect class="cls-4" x="665.62" y="1432.33" width="3.76" height="30.86"/><rect class="cls-4" x="642.25" y="1432.33" width="3.76" height="30.86"/><rect class="cls-4" x="617.53" y="1432.33" width="3.76" height="30.86"/><rect class="cls-4" x="579.64" y="1432.33" width="3.76" height="30.86"/><rect class="cls-4" x="544.16" y="1432.33" width="3.76" height="30.86"/><rect class="cls-4" x="512.48" y="1432.33" width="3.76" height="30.86"/><rect class="cls-4" x="705.69" y="1432.33" width="3.76" height="30.86"/><rect class="cls-4" x="713.68" y="1432.33" width="3.76" height="30.86"/><rect class="cls-4" x="721.4" y="1432.33" width="3.76" height="30.86"/><path class="cls-4" d="M919,1446.52v30.64a9.39,9.39,0,0,1-1.42.11H915.2v-30.86h2.34A9.39,9.39,0,0,1,919,1446.52Z" transform="translate(-187.99 -14.08)"/><path class="cls-4" d="M924.17,1449.38v24.92a8,8,0,0,1-3.75,2.52v-30A7.9,7.9,0,0,1,924.17,1449.38Z" transform="translate(-187.99 -14.08)"/><path class="cls-3" d="M890.2,1422.27v17.43a6,6,0,0,1-1.37,3.75,8,8,0,0,1-3.75,2.51,8,8,0,0,1-1.46.34,9.36,9.36,0,0,1-1.41.11H551.69c-4.26,0-7.77-2.83-8-6.37,0-.11,0-.23,0-.34v-17.43c0-.11,0-.23,0-.34.22-3.54,3.73-6.37,8-6.37H882.21c.21,0,.42,0,.63,0l.27,0,.3,0,.21,0a8.88,8.88,0,0,1,1.46.35l.21.07.2.07.4.17.23.1.21.11c.13.06.25.13.37.2s.28.16.41.25l.31.21,0,0,.2.15a7.2,7.2,0,0,1,.58.5l.16.16c.06,0,.1.11.16.16l.29.34A5.93,5.93,0,0,1,890.2,1422.27Z" transform="translate(-187.99 -14.08)"/><path class="cls-4" d="M727.9,1446.41H550.83a7,7,0,0,1-7.13-6.37c0-.11,0-.23,0-.34v-17.43c0-.11,0-.23,0-.34a7,7,0,0,1,7.13-6.37H706.15c.07.25.15.5.22.76A54,54,0,0,0,727.9,1446.41Z" transform="translate(-187.99 -14.08)"/><rect class="cls-4" x="658.24" y="1401.47" width="3.76" height="30.86"/><rect class="cls-4" x="645.53" y="1401.47" width="3.76" height="30.86"/><rect class="cls-4" x="630.28" y="1401.47" width="3.76" height="30.86"/><rect class="cls-4" x="606.91" y="1401.47" width="3.76" height="30.86"/><rect class="cls-4" x="582.19" y="1401.47" width="3.76" height="30.86"/><rect class="cls-4" x="544.3" y="1401.47" width="3.76" height="30.86"/><rect class="cls-4" x="508.82" y="1401.47" width="3.76" height="30.86"/><rect class="cls-4" x="477.15" y="1401.47" width="3.76" height="30.86"/><rect class="cls-4" x="670.35" y="1401.47" width="3.76" height="30.86"/><rect class="cls-4" x="678.34" y="1401.47" width="3.76" height="30.86"/><rect class="cls-4" x="686.06" y="1401.47" width="3.76" height="30.86"/><path class="cls-4" d="M883.62,1415.66v30.64a9.36,9.36,0,0,1-1.41.11h-2.35v-30.85h2.35A9.36,9.36,0,0,1,883.62,1415.66Z" transform="translate(-187.99 -14.08)"/><path class="cls-4" d="M888.83,1418.52v24.93a8,8,0,0,1-3.75,2.51v-30A8,8,0,0,1,888.83,1418.52Z" transform="translate(-187.99 -14.08)"/><path class="cls-3" d="M907.28,1392.18v17.42a5.91,5.91,0,0,1-1.37,3.75,8,8,0,0,1-3.75,2.52,8.74,8.74,0,0,1-1.47.34,9.26,9.26,0,0,1-1.41.11H568.77a9.29,9.29,0,0,1-3.69-.76,6.85,6.85,0,0,1-4.27-5.31,1.53,1.53,0,0,1,0-.3c0-.12,0-.23,0-.35v-17.42c0-.12,0-.23,0-.35.22-3.53,3.73-6.37,8-6.37H899.28a9.26,9.26,0,0,1,1.41.11,8.74,8.74,0,0,1,1.47.34,8,8,0,0,1,3.75,2.52A5.91,5.91,0,0,1,907.28,1392.18Z" transform="translate(-187.99 -14.08)"/><path class="cls-4" d="M745,1416.32H567.91a7.54,7.54,0,0,1-3.29-.76,6.75,6.75,0,0,1-3.81-5.31,1.53,1.53,0,0,1,0-.3c0-.12,0-.23,0-.35v-17.42c0-.12,0-.23,0-.35a7,7,0,0,1,7.13-6.37H723.24a54.14,54.14,0,0,0,20.65,30.1Z" transform="translate(-187.99 -14.08)"/><rect class="cls-4" x="675.32" y="1371.38" width="3.76" height="30.86"/><rect class="cls-4" x="662.61" y="1371.38" width="3.76" height="30.86"/><rect class="cls-4" x="647.36" y="1371.38" width="3.76" height="30.86"/><rect class="cls-4" x="623.98" y="1371.38" width="3.76" height="30.86"/><rect class="cls-4" x="599.27" y="1371.38" width="3.76" height="30.86"/><rect class="cls-4" x="561.38" y="1371.38" width="3.76" height="30.86"/><rect class="cls-4" x="525.9" y="1371.38" width="3.76" height="30.86"/><rect class="cls-4" x="494.22" y="1371.38" width="3.76" height="30.86"/><rect class="cls-4" x="687.42" y="1371.38" width="3.76" height="30.86"/><rect class="cls-4" x="695.42" y="1371.38" width="3.76" height="30.86"/><rect class="cls-4" x="703.14" y="1371.38" width="3.76" height="30.86"/><path class="cls-4" d="M900.69,1385.57v30.64a9.26,9.26,0,0,1-1.41.11h-2.34v-30.86h2.34A9.26,9.26,0,0,1,900.69,1385.57Z" transform="translate(-187.99 -14.08)"/><path class="cls-4" d="M905.91,1388.43v24.92a7.9,7.9,0,0,1-3.75,2.51v-29.95A8,8,0,0,1,905.91,1388.43Z" transform="translate(-187.99 -14.08)"/><path class="cls-3" d="M915.2,1361.32v17.43a6,6,0,0,1-1.37,3.75,8,8,0,0,1-3.76,2.51,8.41,8.41,0,0,1-1.46.34,9.36,9.36,0,0,1-1.41.11H576.68c-4.26,0-7.77-2.83-8-6.37,0-.11,0-.23,0-.34v-17.43c0-.11,0-.23,0-.34.2-3.27,3.21-5.94,7-6.33.31,0,.62,0,.94,0H907.2a9.36,9.36,0,0,1,1.41.1,8.41,8.41,0,0,1,1.46.35,8,8,0,0,1,3.76,2.51A6,6,0,0,1,915.2,1361.32Z" transform="translate(-187.99 -14.08)"/><path class="cls-4" d="M752.9,1385.46H575.83a7,7,0,0,1-7.13-6.37c0-.11,0-.23,0-.34v-17.43c0-.11,0-.23,0-.34a6.93,6.93,0,0,1,6.28-6.33,7.94,7.94,0,0,1,.85,0H731.15l0,0A54,54,0,0,0,752.9,1385.46Z" transform="translate(-187.99 -14.08)"/><rect class="cls-4" x="683.24" y="1340.52" width="3.76" height="30.85"/><rect class="cls-4" x="670.52" y="1340.52" width="3.76" height="30.85"/><rect class="cls-4" x="655.27" y="1340.52" width="3.76" height="30.85"/><rect class="cls-4" x="631.9" y="1340.52" width="3.76" height="30.85"/><rect class="cls-4" x="607.19" y="1340.52" width="3.76" height="30.85"/><rect class="cls-4" x="569.29" y="1340.52" width="3.76" height="30.85"/><rect class="cls-4" x="533.82" y="1340.52" width="3.76" height="30.85"/><rect class="cls-4" x="502.14" y="1340.52" width="3.76" height="30.85"/><rect class="cls-4" x="695.34" y="1340.52" width="3.76" height="30.85"/><rect class="cls-4" x="703.34" y="1340.52" width="3.76" height="30.85"/><rect class="cls-4" x="711.06" y="1340.52" width="3.76" height="30.85"/><path class="cls-4" d="M908.61,1354.71v30.64a9.36,9.36,0,0,1-1.41.11h-2.35V1354.6h2.35A9.36,9.36,0,0,1,908.61,1354.71Z" transform="translate(-187.99 -14.08)"/><path class="cls-4" d="M913.83,1357.57v24.92a8,8,0,0,1-3.76,2.52v-30A8,8,0,0,1,913.83,1357.57Z" transform="translate(-187.99 -14.08)"/><path class="cls-3" d="M890.9,1330.51v17.43a6,6,0,0,1-1.37,3.75,8,8,0,0,1-3.76,2.51,8.41,8.41,0,0,1-1.46.35l-.46.06-.26,0H552.38c-4.26,0-7.77-2.83-8-6.37,0-.11,0-.23,0-.34v-17.43c0-.11,0-.23,0-.34a2.46,2.46,0,0,1,0-.28c.32-2.85,2.78-5.19,6-5.88l.25,0a8.8,8.8,0,0,1,1.72-.16H882.9l.72,0a3.16,3.16,0,0,0,.32,0h0l.37.06a8.41,8.41,0,0,1,1.46.34,8,8,0,0,1,3.76,2.51A6,6,0,0,1,890.9,1330.51Z" transform="translate(-187.99 -14.08)"/><path class="cls-4" d="M728.6,1354.65H551.53a7,7,0,0,1-7.13-6.37c0-.11,0-.23,0-.34v-17.43c0-.11,0-.23,0-.34a2.46,2.46,0,0,1,0-.28A6.89,6.89,0,0,1,550,1324l.3-.06a7.5,7.5,0,0,1,1.27-.11H706.85l.06.22a54.09,54.09,0,0,0,21.62,30.59Z" transform="translate(-187.99 -14.08)"/><rect class="cls-4" x="658.94" y="1309.71" width="3.76" height="30.86"/><rect class="cls-4" x="646.22" y="1309.71" width="3.76" height="30.86"/><rect class="cls-4" x="630.97" y="1309.71" width="3.76" height="30.86"/><rect class="cls-4" x="607.6" y="1309.71" width="3.76" height="30.86"/><rect class="cls-4" x="582.89" y="1309.71" width="3.76" height="30.86"/><rect class="cls-4" x="545" y="1309.71" width="3.76" height="30.86"/><rect class="cls-4" x="509.52" y="1309.71" width="3.76" height="30.86"/><rect class="cls-4" x="477.84" y="1309.71" width="3.76" height="30.86"/><rect class="cls-4" x="671.04" y="1309.71" width="3.76" height="30.86"/><rect class="cls-4" x="679.04" y="1309.71" width="3.76" height="30.86"/><rect class="cls-4" x="686.76" y="1309.71" width="3.76" height="30.86"/><path class="cls-4" d="M884.31,1323.91v30.64a9.36,9.36,0,0,1-1.41.1h-2.35V1323.8h2.35A8.21,8.21,0,0,1,884.31,1323.91Z" transform="translate(-187.99 -14.08)"/><path class="cls-4" d="M889.53,1326.76v24.93a8,8,0,0,1-3.76,2.51v-30A8,8,0,0,1,889.53,1326.76Z" transform="translate(-187.99 -14.08)"/><path class="cls-3" d="M890.2,1299.88v17.42a5.91,5.91,0,0,1-1.37,3.75,8,8,0,0,1-3.75,2.52,8.62,8.62,0,0,1-1.14.28h0a1.7,1.7,0,0,1-.31.06,9.36,9.36,0,0,1-1.41.11H551.69a8.64,8.64,0,0,1-1-.06l-.4,0c-3.59-.55-6.37-3.13-6.56-6.26,0-.12,0-.23,0-.35v-17.42c0-.12,0-.23,0-.35.22-3.53,3.73-6.37,8-6.37H882.21l.63,0,.27,0,.3,0,.21,0a8,8,0,0,1,1.46.35l.21.07.2.07.4.16.44.21c.13.06.25.13.37.2l.41.26a3.37,3.37,0,0,1,.31.21h0a1.56,1.56,0,0,1,.2.16,4.63,4.63,0,0,1,.58.5l.16.15.16.17c.1.11.2.22.29.34A5.91,5.91,0,0,1,890.2,1299.88Z" transform="translate(-187.99 -14.08)"/><path class="cls-4" d="M727.9,1324H550.41l-.45,0a6.93,6.93,0,0,1-6.26-6.32c0-.12,0-.23,0-.35v-17.42c0-.12,0-.23,0-.35a7,7,0,0,1,7.13-6.37H706.15l.22.76a54,54,0,0,0,21.22,29.88Z" transform="translate(-187.99 -14.08)"/><rect class="cls-4" x="658.24" y="1279.08" width="3.76" height="30.85"/><rect class="cls-4" x="645.53" y="1279.08" width="3.76" height="30.85"/><rect class="cls-4" x="630.28" y="1279.08" width="3.76" height="30.85"/><rect class="cls-4" x="606.91" y="1279.08" width="3.76" height="30.85"/><rect class="cls-4" x="582.19" y="1279.08" width="3.76" height="30.85"/><rect class="cls-4" x="544.3" y="1279.08" width="3.76" height="30.85"/><rect class="cls-4" x="508.82" y="1279.08" width="3.76" height="30.85"/><rect class="cls-4" x="477.15" y="1279.08" width="3.76" height="30.85"/><rect class="cls-4" x="670.35" y="1279.08" width="3.76" height="30.85"/><rect class="cls-4" x="678.34" y="1279.08" width="3.76" height="30.85"/><rect class="cls-4" x="686.06" y="1279.08" width="3.76" height="30.85"/><path class="cls-4" d="M883.62,1293.27v30.64a9.36,9.36,0,0,1-1.41.11h-2.35v-30.86h2.35A9.36,9.36,0,0,1,883.62,1293.27Z" transform="translate(-187.99 -14.08)"/><path class="cls-4" d="M888.83,1296.13v24.92a8,8,0,0,1-3.75,2.52v-30A7.9,7.9,0,0,1,888.83,1296.13Z" transform="translate(-187.99 -14.08)"/><path class="cls-3" d="M907.28,1269.78v17.43a5.93,5.93,0,0,1-1.37,3.75,8,8,0,0,1-3.75,2.51,8.76,8.76,0,0,1-1.47.35,9.27,9.27,0,0,1-1.41.1H568.77a9.12,9.12,0,0,1-3.69-.76,6.84,6.84,0,0,1-4.27-5.31,1.53,1.53,0,0,1,0-.3c0-.11,0-.23,0-.34v-17.43c0-.11,0-.23,0-.34.22-3.54,3.73-6.37,8-6.37H899.28a9.27,9.27,0,0,1,1.41.1,8.76,8.76,0,0,1,1.47.35,8,8,0,0,1,3.75,2.51A5.93,5.93,0,0,1,907.28,1269.78Z" transform="translate(-187.99 -14.08)"/><path class="cls-4" d="M745,1293.92H567.91a7.4,7.4,0,0,1-3.29-.76,6.73,6.73,0,0,1-3.81-5.31,1.53,1.53,0,0,1,0-.3c0-.11,0-.23,0-.34v-17.43c0-.11,0-.23,0-.34a7,7,0,0,1,7.13-6.37H723.24a54.12,54.12,0,0,0,20.65,30.09Z" transform="translate(-187.99 -14.08)"/><rect class="cls-4" x="675.32" y="1248.98" width="3.76" height="30.86"/><rect class="cls-4" x="662.61" y="1248.98" width="3.76" height="30.86"/><rect class="cls-4" x="647.36" y="1248.98" width="3.76" height="30.86"/><rect class="cls-4" x="623.98" y="1248.98" width="3.76" height="30.86"/><rect class="cls-4" x="599.27" y="1248.98" width="3.76" height="30.86"/><rect class="cls-4" x="561.38" y="1248.98" width="3.76" height="30.86"/><rect class="cls-4" x="525.9" y="1248.98" width="3.76" height="30.86"/><rect class="cls-4" x="494.22" y="1248.98" width="3.76" height="30.86"/><rect class="cls-4" x="687.42" y="1248.98" width="3.76" height="30.86"/><rect class="cls-4" x="695.42" y="1248.98" width="3.76" height="30.86"/><rect class="cls-4" x="703.14" y="1248.98" width="3.76" height="30.86"/><path class="cls-4" d="M900.69,1263.18v30.64a9.27,9.27,0,0,1-1.41.1h-2.34v-30.85h2.34A9.26,9.26,0,0,1,900.69,1263.18Z" transform="translate(-187.99 -14.08)"/><path class="cls-4" d="M905.91,1266V1291a8,8,0,0,1-3.75,2.51v-30A8,8,0,0,1,905.91,1266Z" transform="translate(-187.99 -14.08)"/><path class="cls-3" d="M934.29,1238.93v17.42a5.91,5.91,0,0,1-1.37,3.75,8.54,8.54,0,0,1-5.22,2.86,9.26,9.26,0,0,1-1.41.11H595.78c-4.26,0-7.77-2.84-8-6.37,0-.12,0-.23,0-.35v-17.42c0-.12,0-.23,0-.35.2-3.26,3.22-5.94,7-6.32.31,0,.63,0,.95,0H926.29a9.26,9.26,0,0,1,1.41.11,8.74,8.74,0,0,1,1.47.34,8,8,0,0,1,3.75,2.52A5.91,5.91,0,0,1,934.29,1238.93Z" transform="translate(-187.99 -14.08)"/><path class="cls-4" d="M772,1263.07H594.92a7,7,0,0,1-7.13-6.37c0-.12,0-.23,0-.35v-17.42c0-.12,0-.23,0-.35a6.93,6.93,0,0,1,6.29-6.32,7.58,7.58,0,0,1,.84,0H750.24l0,0A54.12,54.12,0,0,0,772,1263.07Z" transform="translate(-187.99 -14.08)"/><rect class="cls-4" x="702.33" y="1218.13" width="3.76" height="30.86"/><rect class="cls-4" x="689.62" y="1218.13" width="3.76" height="30.86"/><rect class="cls-4" x="674.37" y="1218.13" width="3.76" height="30.86"/><rect class="cls-4" x="651" y="1218.13" width="3.76" height="30.86"/><rect class="cls-4" x="626.28" y="1218.13" width="3.76" height="30.86"/><rect class="cls-4" x="588.39" y="1218.13" width="3.76" height="30.86"/><rect class="cls-4" x="552.91" y="1218.13" width="3.76" height="30.86"/><rect class="cls-4" x="521.23" y="1218.13" width="3.76" height="30.86"/><rect class="cls-4" x="714.44" y="1218.13" width="3.76" height="30.86"/><rect class="cls-4" x="722.43" y="1218.13" width="3.76" height="30.86"/><rect class="cls-4" x="730.15" y="1218.13" width="3.76" height="30.86"/><path class="cls-4" d="M927.71,1232.32V1263a9.39,9.39,0,0,1-1.42.11H924v-30.86h2.34A9.39,9.39,0,0,1,927.71,1232.32Z" transform="translate(-187.99 -14.08)"/><path class="cls-4" d="M932.92,1235.18v24.92a7.9,7.9,0,0,1-3.75,2.51v-29.95A8,8,0,0,1,932.92,1235.18Z" transform="translate(-187.99 -14.08)"/><path class="cls-3" d="M890.9,1208.12v17.42a6,6,0,0,1-1.37,3.75,8,8,0,0,1-3.76,2.52,8.41,8.41,0,0,1-1.46.34l-.46.06-.37,0H552.38c-4.26,0-7.77-2.84-8-6.37,0-.12,0-.23,0-.35v-17.42c0-.12,0-.23,0-.35.21-3.53,3.72-6.37,8-6.37h331c.33,0,.66,0,1,.1a8.41,8.41,0,0,1,1.46.35,7.23,7.23,0,0,1,.7.26l.41.18,0,0,.41.22.06,0a3.13,3.13,0,0,1,.36.22,6.6,6.6,0,0,1,.8.59l.22.19,0,0,.14.13,0,0,.23.25c.11.12.22.23.32.36A6,6,0,0,1,890.9,1208.12Z" transform="translate(-187.99 -14.08)"/><path class="cls-4" d="M728.6,1232.26H551.53a7,7,0,0,1-7.13-6.37c0-.12,0-.23,0-.35v-17.42c0-.12,0-.23,0-.35a7,7,0,0,1,7.13-6.37H706.85q.09.36.21.72a53.93,53.93,0,0,0,21.47,30.09Z" transform="translate(-187.99 -14.08)"/><rect class="cls-4" x="658.94" y="1187.32" width="3.76" height="30.86"/><rect class="cls-4" x="646.22" y="1187.32" width="3.76" height="30.86"/><rect class="cls-4" x="630.97" y="1187.32" width="3.76" height="30.86"/><rect class="cls-4" x="607.6" y="1187.32" width="3.76" height="30.86"/><rect class="cls-4" x="582.89" y="1187.32" width="3.76" height="30.86"/><rect class="cls-4" x="545" y="1187.32" width="3.76" height="30.86"/><rect class="cls-4" x="509.52" y="1187.32" width="3.76" height="30.86"/><rect class="cls-4" x="477.84" y="1187.32" width="3.76" height="30.86"/><rect class="cls-4" x="671.04" y="1187.32" width="3.76" height="30.86"/><rect class="cls-4" x="679.04" y="1187.32" width="3.76" height="30.86"/><rect class="cls-4" x="686.76" y="1187.32" width="3.76" height="30.86"/><path class="cls-4" d="M884.31,1201.51v30.64a9.36,9.36,0,0,1-1.41.11h-2.35V1201.4h2.35A9.36,9.36,0,0,1,884.31,1201.51Z" transform="translate(-187.99 -14.08)"/><path class="cls-4" d="M889.53,1204.37v24.92a8,8,0,0,1-3.76,2.52v-30A7.88,7.88,0,0,1,889.53,1204.37Z" transform="translate(-187.99 -14.08)"/><path class="cls-3" d="M915.2,1178v17.42a6,6,0,0,1-1.37,3.75,7.88,7.88,0,0,1-3.76,2.51,7.59,7.59,0,0,1-1.46.35,9.36,9.36,0,0,1-1.41.11H576.68a9.1,9.1,0,0,1-3.57-.72,6.86,6.86,0,0,1-4.39-5.38,2.45,2.45,0,0,1,0-.27c0-.12,0-.23,0-.35V1178c0-.12,0-.23,0-.35.2-3.27,3.21-5.94,7-6.32.31,0,.62,0,.94,0H907.2a9.36,9.36,0,0,1,1.41.11,8.41,8.41,0,0,1,1.46.34,8,8,0,0,1,3.76,2.52A6,6,0,0,1,915.2,1178Z" transform="translate(-187.99 -14.08)"/><path class="cls-4" d="M752.9,1202.12H575.83a7.36,7.36,0,0,1-3.19-.72,6.75,6.75,0,0,1-3.92-5.38,2.45,2.45,0,0,1,0-.27c0-.12,0-.23,0-.35V1178c0-.12,0-.23,0-.35a6.92,6.92,0,0,1,6.28-6.32,7.92,7.92,0,0,1,.85,0H731.15l0,0a54.06,54.06,0,0,0,20.71,30.09C752.21,1201.65,752.55,1201.88,752.9,1202.12Z" transform="translate(-187.99 -14.08)"/><rect class="cls-4" x="683.24" y="1157.18" width="3.76" height="30.86"/><rect class="cls-4" x="670.52" y="1157.18" width="3.76" height="30.86"/><rect class="cls-4" x="655.27" y="1157.18" width="3.76" height="30.86"/><rect class="cls-4" x="631.9" y="1157.18" width="3.76" height="30.86"/><rect class="cls-4" x="607.19" y="1157.18" width="3.76" height="30.86"/><rect class="cls-4" x="569.29" y="1157.18" width="3.76" height="30.86"/><rect class="cls-4" x="533.82" y="1157.18" width="3.76" height="30.86"/><rect class="cls-4" x="502.14" y="1157.18" width="3.76" height="30.86"/><rect class="cls-4" x="695.34" y="1157.18" width="3.76" height="30.86"/><rect class="cls-4" x="703.34" y="1157.18" width="3.76" height="30.86"/><rect class="cls-4" x="711.06" y="1157.18" width="3.76" height="30.86"/><path class="cls-4" d="M908.61,1171.37V1202a9.36,9.36,0,0,1-1.41.11h-2.35v-30.86h2.35A9.36,9.36,0,0,1,908.61,1171.37Z" transform="translate(-187.99 -14.08)"/><path class="cls-4" d="M913.83,1174.23v24.92a7.88,7.88,0,0,1-3.76,2.51v-30A8,8,0,0,1,913.83,1174.23Z" transform="translate(-187.99 -14.08)"/><path class="cls-3" d="M925.54,1147.17v17.42a5.91,5.91,0,0,1-1.37,3.75,8,8,0,0,1-3.75,2.52,8.86,8.86,0,0,1-1.46.34c-.16,0-.31,0-.47.06l-.26,0-.26,0H587c-4.26,0-7.77-2.84-8-6.37,0-.12,0-.23,0-.35v-17.42c0-.12,0-.23,0-.35.22-3.53,3.73-6.37,8-6.37H917.54a9.39,9.39,0,0,1,1.42.11,8.88,8.88,0,0,1,1.46.35,7.9,7.9,0,0,1,3.75,2.51A5.91,5.91,0,0,1,925.54,1147.17Z" transform="translate(-187.99 -14.08)"/><path class="cls-4" d="M763.24,1171.31H586.17a7,7,0,0,1-7.13-6.37c0-.12,0-.23,0-.35v-17.42c0-.12,0-.23,0-.35a7,7,0,0,1,7.13-6.37H741.5a54.05,54.05,0,0,0,21.67,30.81Z" transform="translate(-187.99 -14.08)"/><rect class="cls-4" x="693.58" y="1126.37" width="3.76" height="30.86"/><rect class="cls-4" x="680.87" y="1126.37" width="3.76" height="30.86"/><rect class="cls-4" x="665.62" y="1126.37" width="3.76" height="30.86"/><rect class="cls-4" x="642.25" y="1126.37" width="3.76" height="30.86"/><rect class="cls-4" x="617.53" y="1126.37" width="3.76" height="30.86"/><rect class="cls-4" x="579.64" y="1126.37" width="3.76" height="30.86"/><rect class="cls-4" x="544.16" y="1126.37" width="3.76" height="30.86"/><rect class="cls-4" x="512.48" y="1126.37" width="3.76" height="30.86"/><rect class="cls-4" x="705.69" y="1126.37" width="3.76" height="30.86"/><rect class="cls-4" x="713.68" y="1126.37" width="3.76" height="30.86"/><rect class="cls-4" x="721.4" y="1126.37" width="3.76" height="30.86"/><path class="cls-4" d="M919,1140.56v30.64a9.36,9.36,0,0,1-1.41.11H915.2v-30.86h2.35A9.36,9.36,0,0,1,919,1140.56Z" transform="translate(-187.99 -14.08)"/><path class="cls-4" d="M924.17,1143.42v24.92a8,8,0,0,1-3.75,2.52v-29.95A7.9,7.9,0,0,1,924.17,1143.42Z" transform="translate(-187.99 -14.08)"/><circle class="cls-11" cx="559.87" cy="1320.26" r="157.08" transform="translate(-957.57 768.5) rotate(-45)"/><circle class="cls-3" cx="546.16" cy="1320.26" r="157.08" transform="translate(-961.59 758.81) rotate(-45)"/><path class="cls-4" d="M546.16,1465.24a143.12,143.12,0,1,1,101.2-41.92A142.2,142.2,0,0,1,546.16,1465.24Zm0-277.7c-74.2,0-134.58,60.37-134.58,134.58S472,1456.7,546.16,1456.7s134.58-60.37,134.58-134.58S620.37,1187.54,546.16,1187.54Z" transform="translate(-187.99 -14.08)"/><path class="cls-4" d="M565.87,1363.66a23.75,23.75,0,0,0-.34-8.31,17.18,17.18,0,0,0-3.52-6.9,32.5,32.5,0,0,0-7-6.2,86.07,86.07,0,0,0-10.89-6.1A228.18,228.18,0,0,1,524,1325.1a71.06,71.06,0,0,1-15-12.24,41.84,41.84,0,0,1-8.88-14.91q-2.82-8.27-1.53-19.07a43,43,0,0,1,5.35-16.7A39.73,39.73,0,0,1,515,1249.86a49.69,49.69,0,0,1,15.88-7.56,66.25,66.25,0,0,1,19.82-2.29l2.8-23.59,19,2.26-2.84,23.92a59.14,59.14,0,0,1,17.87,7.6,44.81,44.81,0,0,1,20,28.69,59.62,59.62,0,0,1,.79,20.27l-34.3-4.07q1.57-13.21-3.52-20.48c-3.4-4.83-8.38-7.65-15-8.42a25.69,25.69,0,0,0-9.37.39,17.5,17.5,0,0,0-6.84,3.33,16.26,16.26,0,0,0-4.4,5.68,23.85,23.85,0,0,0-2.09,7.47,21.92,21.92,0,0,0,.31,7.52,16.2,16.2,0,0,0,3.37,6.61,32.7,32.7,0,0,0,7.08,6.2,108.27,108.27,0,0,0,11.32,6.54q11,5.67,19.9,11.31a72.12,72.12,0,0,1,15,12.33,40.44,40.44,0,0,1,10.42,33.94,43.37,43.37,0,0,1-5.45,17,39.35,39.35,0,0,1-11.14,12.21,48.05,48.05,0,0,1-16,7.27,71.6,71.6,0,0,1-19.93,2.11l-2.6,21.93-18.87-2.24,2.59-21.82a80.06,80.06,0,0,1-18.53-6.56A50.83,50.83,0,0,1,495.11,1386a45.59,45.59,0,0,1-9.53-17.06q-3.15-10-1.58-23.22l34.3,4.07a34.17,34.17,0,0,0,.64,13.33,22.1,22.1,0,0,0,4.88,9.07,21.33,21.33,0,0,0,7.85,5.4,36.19,36.19,0,0,0,9.4,2.4,30.7,30.7,0,0,0,10-.27,20.33,20.33,0,0,0,7.53-3.13,16.32,16.32,0,0,0,5-5.5A20,20,0,0,0,565.87,1363.66Z" transform="translate(-187.99 -14.08)"/><path class="cls-10" d="M835,1104.58c-16.09,28-36.32,38.8-36.32,38.8H714.53S847.28,1083.23,835,1104.58Z" transform="translate(-187.99 -14.08)"/><path class="cls-17" d="M770.37,1321.17a7.8,7.8,0,0,0-1.39,8.32.08.08,0,0,0,0,0c2,5.54,8.64,11.74,16.35,17.92,1,.8,1.86,1.52,2.62,2.19l.59.53.45.41c7.18,6.62,4.48,8.14,17.39,21.57,14.71,15.31,24.84,15.59,27.72,14.19,2.44-1.18-2.51-9.3-8-18.43l-.8-1.33-2.18-3.67c-6.44-11-4.78-16.14-3.26-32.48,1.24-13.29,20.67-74.22,20.67-74.22l-28.2-4.85s-8.5,48.51-17.85,56c-5,4-10.61,4-15.41,7l-1,.63A36.82,36.82,0,0,0,770.37,1321.17Z" transform="translate(-187.99 -14.08)"/><path class="cls-10" d="M770.37,1321.17a7.8,7.8,0,0,0-1.39,8.32.08.08,0,0,0,0,0c2.46,5.54,8.93,11.7,16.37,17.87,1,.8,1.83,1.55,2.6,2.24l.59.53.45.41c7.18,6.62,4.48,8.14,17.39,21.57,14.71,15.31,24.84,15.59,27.72,14.19,2.44-1.18-2.51-9.3-8-18.43a62.73,62.73,0,0,1-26.23-19.33c-8.86-11.31-14.77-25.83-20.8-34.25l-1,.63A36.82,36.82,0,0,0,770.37,1321.17Z" transform="translate(-187.99 -14.08)"/><path class="cls-17" d="M997.75,1303.56c1.75,8.71,14.15,7.25,28,3.87s10.56.64,30.29-1.55,25.71-9.54,26.31-12.47c.54-2.6-9.21-3.52-19.67-4.73l-4-.47c-11.81-1.48-20.45-9.1-31.18-15.36-10.15-5.92-25.31-30.07-25.31-30.07l-27.06,2.15s14.2,21.56,19.69,30.94c3.23,5.51,3.06,12.8,2.66,18.44A35,35,0,0,0,997.75,1303.56Z" transform="translate(-187.99 -14.08)"/><path class="cls-10" d="M1025.77,1307.43c13.86-3.39,10.56.64,30.29-1.55s25.71-9.54,26.31-12.47c.54-2.6-9.21-3.52-19.67-4.73l-.09.2a55.7,55.7,0,0,1-28.26,8.79c-13.38.32-27.56-3.51-36.8-3.36a35,35,0,0,0,.2,9.25C999.5,1312.27,1011.9,1310.81,1025.77,1307.43Z" transform="translate(-187.99 -14.08)"/><path class="cls-10" d="M894.07,1130.56l-25.3,68.06-33,88.86a53.37,53.37,0,0,1-17.54-1.6c-7.9-2.28-17-8.26-17-8.26s9.17-95.42,26.28-150.19c4.38-14.06,9.29-25.43,14.71-31.83C868.75,1064.26,894.07,1130.56,894.07,1130.56Z" transform="translate(-187.99 -14.08)"/><path class="cls-12" d="M868.35,1022.47c-16.57-5.35-63.83,1.51-111.31,10.81l-9.94-16.4-102.54-8s-33.84,75-15.31,122.86c2.72,7,9.46,10,18.68,10.14h0s61.19,1.49,81,1.49c51,0,107.93-35,115.29-36.52,12.06-2.41,16.88,21.69,28.93,47S986.48,1266,986.48,1266s15.57.16,22-2.25c6.92-2.59,9.45-6,9.45-6S905.72,1034.52,868.35,1022.47Z" transform="translate(-187.99 -14.08)"/><path class="cls-10" d="M736.21,715.76a36.32,36.32,0,0,0-19.72-5.09,59.51,59.51,0,0,1-9.79-.65c-38.86-5.22-62.25,51.24-63.62,68.35-2.54,31.54-19.22,36.35-42.7,56.1-47.09,39.6-33.28,85.61-7.53,102.71,15.44,10.26,42.67,0,42.67,0,.39.27,74.47-41.41,111-61.52C801.24,867.88,758.2,728.85,736.21,715.76Z" transform="translate(-187.99 -14.08)"/><path class="cls-17" d="M715.9,858.55c.16.1-18,6.29-30.09.92-11.41-5-20-23.8-19.87-23.81,5.18-.24,10.88-4.77,15.26-34.53l2.21.79,37.14,13.37s-2.69,11.91-4.43,23.26C714.65,848.08,713.87,857.2,715.9,858.55Z" transform="translate(-187.99 -14.08)"/><path class="cls-18" d="M720.55,815.29s-2.69,11.91-4.43,23.26c-21.33-3.84-29.7-25.09-32.71-36.63Z" transform="translate(-187.99 -14.08)"/><path class="cls-17" d="M726.08,827.12s-50.81-6.82-46.08-38.4S681.37,735,714,738s37.13,16,38.11,26.94S739.42,828.08,726.08,827.12Z" transform="translate(-187.99 -14.08)"/><path class="cls-10" d="M750.27,747.64s-32.53,28-54.66,30.29-30.5-4.84-30.5-4.84A86.43,86.43,0,0,0,686,744.78a15.58,15.58,0,0,1,12.83-9.17C714.63,734.25,744.57,733.63,750.27,747.64Z" transform="translate(-187.99 -14.08)"/><path class="cls-10" d="M729.93,745.13s10.89,10.52,14.31,18.32c3.31,7.53,4.3,25.54,1.67,32.7,0,0,17-33,7.35-49C743.08,730.18,729.93,745.13,729.93,745.13Z" transform="translate(-187.99 -14.08)"/><path class="cls-19" d="M758.68,933.4c-1.53,102.86-.42,81.36-11.67,91.12-2.71,2.35-10.33,3.75-20.36,4.42-31.54,2.09-87-3.11-89.09-8.94-7.28-20.16-2.14-26.43-8.21-57.3-.64-3.29-1.42-6.84-2.34-10.71-5.06-21.21-10-28.42,8-62.5,16.28-30.86,33.2-55.9,34.72-55,42.95,25.5,46.42,4.07,46.42,4.07S759.43,883.23,758.68,933.4Z" transform="translate(-187.99 -14.08)"/><path class="cls-12" d="M868.77,1198.62l-33,88.86a53.37,53.37,0,0,1-17.54-1.6c-7.9-2.28-17-8.26-17-8.26s9.17-95.42,26.28-150.19Z" transform="translate(-187.99 -14.08)"/><path class="cls-19" d="M716.12,838.55s44.2,7.49,49.39,26.52S801.24,996,801.24,996s-22.47,4-32.85-6.34-36.12-96.31-36.12-96.31Z" transform="translate(-187.99 -14.08)"/><path class="cls-20" d="M726.65,1028.94c-31.54,2.09-87-3.11-89.09-8.94-7.28-20.16-2.14-26.43-8.21-57.3l15.21-42.84s-2.52,47.7,11.55,60.25,57.6,24.21,64.44,34.7C723.84,1019.84,726,1024.88,726.65,1028.94Z" transform="translate(-187.99 -14.08)"/><path class="cls-17" d="M690.51,1008.87s31.12-6.92,36.14-4.16,17.29,12.81,18.82,16.31-11.18-2.65-15.31-3.76c-2.68-.72-9.73,1.73-13.22,2.89-14.68,4.9-23.68,2.38-23.68,2.38Z" transform="translate(-187.99 -14.08)"/><path class="cls-19" d="M669.67,834.47s-41.78,2.57-56.24,22.74c-20.36,28.4-60.75,149.42-37.6,165.56,26.06,18.17,118.63,4.75,118.63,4.75s3.08-14.4-1.2-21.36-73.94-18.22-77.15-21.43S656.29,922,656.29,912.4,669.67,834.47,669.67,834.47Z" transform="translate(-187.99 -14.08)"/><path class="cls-17" d="M728.15,1013.37s6.52,8.41,8.66,9.41a6.41,6.41,0,0,0,3.52.75l-4.4-7.9Z" transform="translate(-187.99 -14.08)"/><path class="cls-17" d="M726.65,1004.71l19,9.2a3.38,3.38,0,0,1-3.14,1.21c-2.33-.1-8.22-2.25-8.22-2.25Z" transform="translate(-187.99 -14.08)"/><polygon class="cls-21" points="548.82 1021.58 698.76 1021.58 743.87 909.42 594.16 909.42 548.82 1021.58"/><polygon class="cls-22" points="700.52 1017.21 502.52 1017.21 502.52 1021.58 698.76 1021.58 700.52 1017.21"/><path class="cls-19" d="M848.9,979.58c1.13-3.94-1.15-7.14-5.09-7.14a10.23,10.23,0,0,0-9.19,7.14c-1.13,3.95,1.15,7.14,5.09,7.14A10.22,10.22,0,0,0,848.9,979.58Z" transform="translate(-187.99 -14.08)"/><path class="cls-2" d="M1597.21,1046.41c0-.6,3.31-68.61-29.55-84.26l2.32-2.23c15,5.26,31.73,21.51,38.41,44.44,5,17,1.19,20.8,1.21,21.44Z" transform="translate(-187.99 -14.08)"/><path class="cls-2" d="M1511.41,911.7s-3.75,35,14.57,49.86,51.79,4,51.79,4,3.76-35-14.57-49.87S1511.41,911.7,1511.41,911.7Z" transform="translate(-187.99 -14.08)"/><path class="cls-2" d="M1591.6,1174c-.62-3.42-12.47-83.52,17.84-172.78,29.13-85.75,13-158.46,12.87-159.19h21.44c.55,3.11,2,74.48-20.79,172.29-20.54,88,17.82,159.68,9.65,159.68Z" transform="translate(-187.99 -14.08)"/><path class="cls-2" d="M1636.61,937.53c.11-.45,10.34-59.14,37.86-65.81h0c-12.3,1.6-27.93,10.4-36.67,26.81-6.5,12.19-4.23,15.64-4.35,16.13Z" transform="translate(-187.99 -14.08)"/><path class="cls-2" d="M1526.47,781.88s-29.69-41.91-63.4-54.22c0,0,12.6,98.31-5.83,99.52s-6.15-110.55-6.15-110.55-87.83-48.77-123.49-47.41c0,0,50.49,98.23,32.32,94.87S1284.46,661,1284.46,661s-91.65-22.59-109.74,31.45,4.33,82.9,17.85,87.14,101.68,8.25,98.72,19.56-63.51,26.12-96.08,13.88c0,0,31.31,92.52,79.62,90.76s64.93-30.64,94.81-31.18,51.14,8.73,35.8,15.87-65.36-1.2-90.58,17.82-45.4,30.46-1.33,42.22,110.61-1.52,142.18-22.55c.09-.06,25.85-2.11,46.13,117.13,7.82,46,1.8,114.15,1.8,114.15l16.36-2.49c9.08-133.65-39.16-244.77-39.16-244.77S1562.68,849.43,1526.47,781.88Z" transform="translate(-187.99 -14.08)"/><path class="cls-14" d="M1794.13,958.28s-98.61-41.43-63.32-116.81c0,0,29.73-47.19,65.56-62.52,0,0-7.89,107.34,12.17,107.57s.17-120.23.17-120.23,92.36-58,131.11-58.67c0,0-49,109.48-29.47,104.76s75.75-116.26,75.75-116.26,98.05-29.89,120.84,27.64.19,90.14-14.23,95.53-109.76,14.93-105.89,27,70.41,24.59,105,9.41c0,0-28.51,102.15-81,103.08s-72.2-29.39-104.62-28.22-54.94,12.48-37.89,19.31,70.8-5.14,99.26,14,51,30.35,3.92,45.7-134.35,19-155.86-16.17Z" transform="translate(-187.99 -14.08)"/><path class="cls-2" d="M2063.29,747.49S1813.16,861,1794.13,958.28c0,0,6,41.9-14.51,93.06l2.09,18.54s20.07-66.13,33.92-76.47C1815.63,993.41,1748.29,918.39,2063.29,747.49Z" transform="translate(-187.99 -14.08)"/><path class="cls-2" d="M1779.62,1051.34s-33.16,65.33-2,136.77l10-3.94s-19.23-80.39-2.92-123.76S1779.62,1051.34,1779.62,1051.34Z" transform="translate(-187.99 -14.08)"/><path class="cls-2" d="M1418.16,509.46c40.41,43,19.39,128.42,19.39,128.42s-86.56,15.68-127-27.32-19.39-128.42-19.39-128.42S1377.74,466.46,1418.16,509.46Z" transform="translate(-187.99 -14.08)"/><path class="cls-14" d="M1418.16,509.46c40.41,43,19.39,128.42,19.39,128.42L1291.19,482.14S1377.74,466.46,1418.16,509.46Z" transform="translate(-187.99 -14.08)"/><path class="cls-2" d="M1939.38,673.28c-21.09,24.43-68.74,17.86-68.74,17.86s-13.46-46.19,7.63-70.62S1947,602.66,1947,602.66,1960.47,648.85,1939.38,673.28Z" transform="translate(-187.99 -14.08)"/><path class="cls-2" d="M1690.11,888.2c-14.14,3.92-30.5-10.58-30.5-10.58s6.56-20.87,20.69-24.79,30.51,10.58,30.51,10.58S1704.25,884.28,1690.11,888.2Z" transform="translate(-187.99 -14.08)"/><path class="cls-2" d="M1440.45,429.7c9.69,23-11.2,53.73-11.2,53.73s-36.6-6.51-46.29-29.49,11.2-53.73,11.2-53.73S1430.76,406.72,1440.45,429.7Z" transform="translate(-187.99 -14.08)"/><circle class="cls-11" cx="1635.06" cy="623.98" r="215.66" transform="translate(-150.3 1324.84) rotate(-45)"/><circle class="cls-3" cx="1616.4" cy="626.33" r="215.66" transform="translate(-157.43 1312.33) rotate(-45)"/><path class="cls-4" d="M1641.26,823.81a196.51,196.51,0,1,1,130.66-74.46A195.21,195.21,0,0,1,1641.26,823.81Zm-47.63-378.28c-101.08,12.73-173,105.32-160.24,206.41s105.32,173,206.41,160.24,173-105.32,160.24-206.41S1694.72,432.8,1593.63,445.53Z" transform="translate(-187.99 -14.08)"/><path class="cls-4" d="M1650.68,682.06a32.26,32.26,0,0,0-1.89-11.26,23.56,23.56,0,0,0-6-8.8,44.65,44.65,0,0,0-10.63-7.24,118.88,118.88,0,0,0-15.88-6.44,309.05,309.05,0,0,1-29.29-11.6,98,98,0,0,1-22.57-14.09,57.52,57.52,0,0,1-14.66-18.8q-5.25-10.77-5.35-25.71a59.18,59.18,0,0,1,4.42-23.66,54.78,54.78,0,0,1,13-18.69,68.25,68.25,0,0,1,20.34-13,90.7,90.7,0,0,1,26.61-6.51l-.23-32.62,26.25-.19.24,33.07a81.7,81.7,0,0,1,25.64,7.29,61.64,61.64,0,0,1,32.17,35.66,82.1,82.1,0,0,1,4.54,27.48l-47.41.34q-.13-18.28-8.32-27.3t-21.8-8.91a35.12,35.12,0,0,0-12.7,2.15,23.79,23.79,0,0,0-8.74,5.7,22.2,22.2,0,0,0-5,8.49,33,33,0,0,0-1.57,10.53,30,30,0,0,0,1.72,10.2,22.21,22.21,0,0,0,5.72,8.42,44.72,44.72,0,0,0,10.71,7.23,150.87,150.87,0,0,0,16.54,7q16,5.84,29,12A98.69,98.69,0,0,1,1678.08,637a58.3,58.3,0,0,1,14.66,18.87q5.23,10.78,5.35,25.57a59.55,59.55,0,0,1-4.5,24.11,54,54,0,0,1-13.08,18.53,66,66,0,0,1-20.5,12.65,98.24,98.24,0,0,1-26.78,6.28l.22,30.33-26.09.19-.21-30.18a110.52,110.52,0,0,1-26.38-5.75,69.81,69.81,0,0,1-22.65-13A62.58,62.58,0,0,1,1542.21,703q-6-13.07-6.13-31.35l47.42-.34q.07,10.83,3.16,18a30.32,30.32,0,0,0,8.2,11.52,29.46,29.46,0,0,0,11.61,6,50,50,0,0,0,13.22,1.65,41.8,41.8,0,0,0,13.52-2.07,28,28,0,0,0,9.73-5.56,22.35,22.35,0,0,0,5.84-8.35A27.17,27.17,0,0,0,1650.68,682.06Z" transform="translate(-187.99 -14.08)"/><polygon class="cls-23" points="1619.14 1139.07 1619.12 1139.24 1614.83 1205.31 1598.86 1450.59 1300.37 1450.59 1282.79 1208.67 1277.95 1141.99 1277.74 1139.07 1619.14 1139.07"/><path class="cls-24" d="M1807.11,1153.33l-4.3,66.06c-22.49-7.83-85-26.65-166.39-26.65-102.81,0-165.64,30-165.64,30l-4.84-66.68Z" transform="translate(-187.99 -14.08)"/><polygon class="cls-23" points="1629.51 1173.99 1266.92 1173.99 1262.76 1131.84 1634.12 1131.84 1629.51 1173.99"/><polygon class="cls-24" points="1603.45 1463.69 1293.96 1463.69 1290.42 1449 1607.38 1449 1603.45 1463.69"/><path class="cls-2" d="M1256.06,1341.12c-.28-1.54-5.61-37.56,8-77.71,13.1-38.58,5.84-71.28,5.79-71.61h9.64c.24,1.4.91,33.5-9.35,77.5-9.24,39.59,8,71.82,4.34,71.82Z" transform="translate(-187.99 -14.08)"/><path class="cls-2" d="M1276.31,1234.77c0-.21,4.65-26.6,17-29.61h0c-5.53.72-12.56,4.68-16.49,12.06-2.92,5.49-1.9,7-1.95,7.26Z" transform="translate(-187.99 -14.08)"/><path class="cls-2" d="M1253.43,1228.59s-12.11-19.67-26.89-26.17c0,0,2.82,44.49-5.5,44.5s.45-49.8.45-49.8-38-24.43-54.06-24.86c0,0,19.82,45.56,11.76,43.52s-30.88-48.48-30.88-48.48-40.49-12.79-50.17,10.94-.46,37.34,5.49,39.63,45.4,6.65,43.74,11.64-29.27,9.89-43.53,3.45c0,0,11.37,42.43,33.11,43s30-11.87,43.46-11.25,22.7,5.41,15.61,8.17-29.3-2.43-41.17,5.37-21.27,12.36-1.82,18.92,49.69,2.52,64.47-6c0,0,11.66-.2,17.31,53.91,2.18,20.86-2.49,51.3-2.49,51.3l7.41-.65c8-59.73-10.49-111-10.49-111S1267.73,1260,1253.43,1228.59Z" transform="translate(-187.99 -14.08)"/><path class="cls-2" d="M1300.37,1212.58c-6.36,1.76-13.72-4.76-13.72-4.76s2.95-9.39,9.31-11.15,13.72,4.76,13.72,4.76S1306.73,1210.81,1300.37,1212.58Z" transform="translate(-187.99 -14.08)"/><path class="cls-2" d="M1373.53,1069.18c-22.21,14.54-22,54.1-22,54.1s36.19,16,58.4,1.45,22-54.11,22-54.11S1395.74,1054.63,1373.53,1069.18Z" transform="translate(-187.99 -14.08)"/><path class="cls-14" d="M1373.53,1069.18c-22.21,14.54-22,54.1-22,54.1l80.42-52.66S1395.74,1054.63,1373.53,1069.18Z" transform="translate(-187.99 -14.08)"/><path class="cls-2" d="M1372.2,1032c-6.66,9-.78,24.67-.78,24.67s16.69,1,23.35-8,.78-24.68.78-24.68S1378.86,1022.92,1372.2,1032Z" transform="translate(-187.99 -14.08)"/><circle class="cls-11" cx="1275.61" cy="1093.73" r="97.01" transform="translate(-587.75 1208.25) rotate(-45)"/><circle class="cls-3" cx="1267.21" cy="1094.79" r="97.01" transform="translate(-256.6 70.77) rotate(-3.73)"/><path class="cls-4" d="M1278.4,1183.61a88.39,88.39,0,1,1,58.77-33.49A87.83,87.83,0,0,1,1278.4,1183.61ZM1257,1013.46a83.11,83.11,0,1,0,92.85,72.08A83.21,83.21,0,0,0,1257,1013.46Z" transform="translate(-187.99 -14.08)"/><path class="cls-4" d="M1282.63,1119.85a14.5,14.5,0,0,0-.84-5.06,10.74,10.74,0,0,0-2.69-4,20.36,20.36,0,0,0-4.78-3.26,53,53,0,0,0-7.15-2.89,141.3,141.3,0,0,1-13.17-5.22,43.91,43.91,0,0,1-10.15-6.34,25.89,25.89,0,0,1-6.6-8.45,29.26,29.26,0,0,1-.41-22.21,24.55,24.55,0,0,1,5.84-8.41,30.68,30.68,0,0,1,9.15-5.85,40.73,40.73,0,0,1,12-2.93l-.11-14.67,11.81-.09.11,14.88a36.78,36.78,0,0,1,11.53,3.27,27.74,27.74,0,0,1,14.47,16,37.06,37.06,0,0,1,2.05,12.36l-21.33.16q-.06-8.23-3.74-12.28a12.5,12.5,0,0,0-9.81-4,15.7,15.7,0,0,0-5.71,1,10.56,10.56,0,0,0-3.93,2.56,9.9,9.9,0,0,0-2.26,3.82,14.85,14.85,0,0,0-.71,4.74,13.69,13.69,0,0,0,.77,4.58,10.06,10.06,0,0,0,2.58,3.79,20.2,20.2,0,0,0,4.82,3.26,70.12,70.12,0,0,0,7.44,3.13q7.17,2.63,13.06,5.39a44.27,44.27,0,0,1,10.12,6.41,25,25,0,0,1,9,20,26.67,26.67,0,0,1-2,10.84,24.31,24.31,0,0,1-5.88,8.34,29.69,29.69,0,0,1-9.22,5.69,44.08,44.08,0,0,1-12,2.82l.09,13.64-11.73.09-.1-13.58a49.62,49.62,0,0,1-11.86-2.58A31.55,31.55,0,0,1,1241,1139a28.07,28.07,0,0,1-7.15-9.72,34.2,34.2,0,0,1-2.76-14.1l21.33-.15a20.93,20.93,0,0,0,1.42,8.11,13.44,13.44,0,0,0,3.69,5.18,13.06,13.06,0,0,0,5.22,2.71,22.52,22.52,0,0,0,6,.74,18.63,18.63,0,0,0,6.08-.93,12.65,12.65,0,0,0,4.37-2.5,10,10,0,0,0,2.63-3.75A12.14,12.14,0,0,0,1282.63,1119.85Z" transform="translate(-187.99 -14.08)"/><polygon class="cls-5" points="1165.02 1317.67 1165.01 1317.75 1163.08 1347.46 1155.9 1457.8 1021.63 1457.8 1013.73 1348.98 1011.55 1318.99 1011.46 1317.67 1165.02 1317.67"/><path class="cls-6" d="M1353,1331.83l-1.93,29.72c-10.12-3.52-38.23-12-74.85-12-46.24,0-74.51,13.5-74.51,13.5l-2.17-30Z" transform="translate(-187.99 -14.08)"/><polygon class="cls-5" points="1169.68 1333.38 1006.59 1333.38 1004.72 1314.42 1171.76 1314.42 1169.68 1333.38"/><polygon class="cls-5" points="1157.96 1463.69 1018.75 1463.69 1017.16 1457.08 1159.73 1457.08 1157.96 1463.69"/><path class="cls-25" d="M1906.23,910.63s-15.33-3-18.83,0-20.14,19.89-16.58,25.44,20.63-4.6,24.18-5.55,13.47-4.83,13.47-4.83Z" transform="translate(-187.99 -14.08)"/><path class="cls-12" d="M2069.16,1452.72l16.44,6.12s71.39-99,80.18-186.13c1.57-15.56,1-30.63-2.35-44.54,0,0,.7-4,1.92-11,.56-3.29,1.26-7.25,2.05-11.78,2.32-13.3,5.52-31.5,9.17-52.21,8.4-47.68,19.28-108.63,27.73-153.44l-4.42-1.42L2152,982.83l-9.91-31.45L2106.37,942s-8,15.59-15.09,89.24c-1.32,9.67-2.51,20.32-3.41,31.87a630.85,630.85,0,0,0,3.39,129q2.46,19.2,6.27,39.6c1.88,10,2.16,23.52,1.37,39.1C2095.3,1342,2069.16,1452.72,2069.16,1452.72Z" transform="translate(-187.99 -14.08)"/><path class="cls-10" d="M2087.87,1063.1l77.48,154c.56-3.29,1.26-7.25,2.05-11.78,2.32-13.3,5.52-31.5,9.17-52.21,8.4-47.68,19.28-108.63,27.73-153.44l-4.42-1.42L2152,982.83l-9.91-31.45L2106.37,942s-8,15.59-15.09,89.24C2090,1040.9,2088.77,1051.55,2087.87,1063.1Z" transform="translate(-187.99 -14.08)"/><path class="cls-12" d="M2122,961.75l1.8-15.38c30.05,8,110.34-22.3,110.34-22.3s29.11,25.59,25.29,86.93c-1.87,29.94-5.28,157.16-8.84,194.8-1.28,13.65-2.41,23.36-2.87,27.24v0a5.39,5.39,0,0,0,.87,3.34,176.88,176.88,0,0,1,13.14,27.62c34.93,93.09-5.38,207.73-5.38,207.73l-10.46-4.21s-22.94-127.58-41.58-183.94c-3.17-9.56-6.2-17.08-9-21.57-8.1-13.08-15.63-34.45-22.45-59.87-12.9-48.06-23.29-110.58-30.2-158.84C2141.66,1043.37,2122,961.75,2122,961.75Z" transform="translate(-187.99 -14.08)"/><path class="cls-25" d="M1906.23,910.63l2.24,15.06s1,0,2.74-.13c5.47-.37,18.78-1.12,33.83-2.74,22.64-2.23,49.51-6.22,60.21-12.81,16.29-10,43-40.42,60.45-70.9a19.91,19.91,0,0,0,1.24-2.24c9.08-16.17,15.42-32.21,15.92-45a64.59,64.59,0,0,0-2.11-20.4,52.06,52.06,0,0,0-9.21-18.41,9.36,9.36,0,0,0-1.74-2.12A43.06,43.06,0,0,0,2058,740.85c-3-1.24-6.22.25-9.57,3.86v.12a57.08,57.08,0,0,0-8.59,12.69c-.12.12-.24.25-.24.37-.63,1.12-1.25,2.36-2,3.73a3.19,3.19,0,0,0-.49.87q-2.05,4.29-4.11,9c-15.3,33.33-31.59,83.83-45.15,98.88-5.84,6.47-32.59,19.16-53.86,28.61C1918.67,905.66,1906.23,910.63,1906.23,910.63Z" transform="translate(-187.99 -14.08)"/><path class="cls-25" d="M2064.55,775.19c9.43,4.37,20.82,7.35,34.6,8.1,51.67,2.84,63.39-42.45,65.53-72.51a43.31,43.31,0,0,0-17.73-2.24c-3.66.2-7.49.58-10.64,1-6.32-3.3-17.67-19.33-24.23-46.16l-2.23,1-37.28,17.52s4,12.13,6.89,23.74c2.28,9.08,3.91,17.86,2.54,20.32-2.93,1.19-4.69,1.94-4.69,1.94l0,0A256.12,256.12,0,0,0,2064.55,775.19Z" transform="translate(-187.99 -14.08)"/><path class="cls-21" d="M2051.62,809.09c.39,1,.82,2,1.29,3.07,13.09,28.18,37.31,144.91,37.31,144.91-3.45,21,157.72-4.12,158.14-23.23,5.67-20.26-20.14-52.82-34.7-69.15a46.47,46.47,0,0,1-4.89-6.57,45.88,45.88,0,0,1-6.6-19.27c-2.86-27.09-1.77-52.48-2-67.91h0c-2.85-2.11-5.6-4.06-8.16-5.91a72.9,72.9,0,0,1-9.93-8.24c-2.81-2.95-4.56-6-4.77-9.38a50.59,50.59,0,0,1,.21-7.86c.12-1.25.28-2.5.47-3.75a106.51,106.51,0,0,1,7.48-25c-13.86-5.61-38.51-2.27-38.51-2.27s0,1.37,0,3.61c.08,9,0,32.12-2.88,36.5-3.61,5.45-69.65,29.32-73.14,21.92s6-41.34,6.32-42.63l0,0c-22.12,8.68-30,16-30,16C2060.62,752.51,2041.32,781.75,2051.62,809.09Z" transform="translate(-187.99 -14.08)"/><path class="cls-26" d="M2096.1,565.59c.09-2.24,1.82-26.37,38.58-27.63,0,0-18.08,2.15-21.2,10.1,0,0,12.31-9.82,22.33-6.66s15.92,20.72,16,26.49-5.52,24.4-11.88,26a19.56,19.56,0,0,1-7.7,0,87.05,87.05,0,0,1,4.94,8.81c14.66,30.11-.46,59.54-12.88,56.29-8-2.09-10.22,11.51-10.22,11.51l-77.38-62.65S2065.09,549,2096.1,565.59Z" transform="translate(-187.99 -14.08)"/><path class="cls-27" d="M2072.57,681.91s4,12.12,6.88,23.74c21.79-6.08,28.41-29,30.4-41.26Z" transform="translate(-187.99 -14.08)"/><path class="cls-25" d="M2068,694.74s52.13-12.06,44.12-44.41-6.68-55.69-40.31-49.36-37,20.28-37,31.72S2054.21,697.05,2068,694.74Z" transform="translate(-187.99 -14.08)"/><path class="cls-26" d="M2031.9,614.33c5.61-11.73,12.2-11.1,16.33-9,24.5-22.67,48.52-4.15,48.52-4.15C2106,623.5,2126,632.63,2126,632.63s-8,8.2-31.22,8c-7.09-.06-14.22-3.31-20.7-7.8a124.78,124.78,0,0,0,27.18,20.27c-29.06-5.56-48.54-39.19-50.54-42.77-2.46,3.64-7.17,11.38-7.56,17.91-.54,8.88,2.51,26.12-2.57,26.77C2040.63,655,2023.5,631.91,2031.9,614.33Z" transform="translate(-187.99 -14.08)"/><path class="cls-21" d="M2047.28,743.86s-12.55,21.9-14.43,27.53c0,0,16.28-.62,22.86,11.9C2055.71,783.29,2057.28,746.82,2047.28,743.86Z" transform="translate(-187.99 -14.08)"/><path class="cls-22" d="M2133.61,917.85c31.79-.34,58.71-33.35,75.16-59.73a45.88,45.88,0,0,1-6.6-19.27c-2.86-27.09-1.77-52.48-2-67.91h0c-2.85-2.11-5.6-4.06-8.16-5.91a72.9,72.9,0,0,1-9.93-8.24C2156,800.79,2090.51,918.3,2133.61,917.85Z" transform="translate(-187.99 -14.08)"/><path class="cls-25" d="M2013.45,935.14l4.36,15.92s5.47-1,14.18-2.61c2.61-.5,4.1-.87,4.1-.87,7-1.37,15.3-3.24,24.38-5.23h.13c15.54-3.73,33-8.21,47.64-13.18,10.32-3.61,19.28-7.46,25.37-11.32a14.5,14.5,0,0,0,1.74-1.25c14.55-10.57,31.84-41.66,45.28-75,1.86-4.6,3.6-9.2,5.35-13.68a340.93,340.93,0,0,0,14.18-47.27,133.11,133.11,0,0,0,3.35-22.51,54.88,54.88,0,0,0,.13-6.35c-.25-36.07-18.16-41-18.16-41a12.13,12.13,0,0,0-1.25-.37c-3.1-.5-6.34,1.61-9.7,5.72-4.23,5.1-8.7,13.43-13.31,23.51-7.09,16-14.55,36.81-21.51,57.46-3.86,11.32-7.59,22.64-11.32,33.09-2.12,6.34-4.23,12.31-6.22,17.79-3.86,10.44-7.34,18.9-10.45,24.25-2,3.48-7.71,8.33-15.3,13.81-13.19,9.57-32.46,21.14-49.26,30.59-7,4-13.55,7.59-19,10.58C2019.3,932,2013.45,935.14,2013.45,935.14Z" transform="translate(-187.99 -14.08)"/><path class="cls-21" d="M2161.27,739.66c23.94-6.6,42.41,12.09,42.41,12.09-.3-36-18.22-40.94-18.22-40.94C2178.25,707.82,2169.89,720.31,2161.27,739.66Z" transform="translate(-187.99 -14.08)"/><path class="cls-10" d="M2195.47,1480.31h82.78s2-12.62-2.34-22.19c-4.14-9.18-10.63-13.36-9.08-24.47-5.26,5.42-13.83,11.48-25.8,9.87-1.46,2.38-9.46,15.1-14.36,18.62C2221.26,1466,2197.14,1464.64,2195.47,1480.31Z" transform="translate(-187.99 -14.08)"/><path class="cls-10" d="M2017.72,1480.31h82.79s3.09-13.2-2.34-22.19c-4.81-7.95-3-12.48.59-19a32.17,32.17,0,0,1-13.94,2.62c-4.12-.24-8.49-2.11-12.31-4.33-3.56,4.06-18.82,21.35-23.59,24.78C2043.51,1466,2019.39,1464.64,2017.72,1480.31Z" transform="translate(-187.99 -14.08)"/><path class="cls-28" d="M2008.53,1008.9l-19.67-48a13.31,13.31,0,0,0-15.81-7.75,82.08,82.08,0,0,0-25.67-29.2c-10.72-7.38-22.75-11.44-34.64-11.39a49,49,0,0,0-18.49,3.66c-28,11.46-40.5,46.8-30.24,81.5l-1.53.63s-4.78-.33-12.8-.33c-25.33,0-82.92,3.36-123.33,31.43a11.15,11.15,0,0,0-2.63,6.83,10.56,10.56,0,0,0,.85,4.53s64.86-42,124.84,1.16q5.53,4,10.74,7.35l5.38,13.13a42.89,42.89,0,0,0,55.8,23.36l54.94-22.51,11.45-4.7A38.2,38.2,0,0,0,2008.53,1008.9ZM1902,970l-22.38,9.18a13.12,13.12,0,0,0-7.71,15.32l-2.4,1c-9.1-31.62,2-63.51,27-73.75a42.27,42.27,0,0,1,10.76-2.84c11.5-1.52,23.49,1.58,34.26,8.3a75.43,75.43,0,0,1,26,28.14l-3.31,1.35a13.11,13.11,0,0,0-16.23-5.49l-22.39,9.18a11.08,11.08,0,0,0-14.4-6l-3.1,1.28A11.06,11.06,0,0,0,1902,970Z" transform="translate(-187.99 -14.08)"/><path class="cls-29" d="M1860.15,1049.33q-5.22-3.4-10.74-7.35c-60-43.16-124.84-1.16-124.84-1.16a10.56,10.56,0,0,1-.85-4.53c9.07-6,43.1-25.87,85.27-19.07C1858.39,1025.18,1867.33,1032.06,1860.15,1049.33Z" transform="translate(-187.99 -14.08)"/><path class="cls-29" d="M1987.72,1058.61l-11.45,4.7c17.16-9.37-4.09-49-16.52-75.1S1928.51,974,1928.51,974c-4.31-8.76-13.54-8.29-13.54-8.29-.48-8.44-6.92-10.13-6.92-10.13l3.1-1.28a11.08,11.08,0,0,1,14.4,6l22.39-9.18a13.11,13.11,0,0,1,16.23,5.49l3.31-1.35a75.43,75.43,0,0,0-26-28.14c-10.77-6.72-22.76-9.82-34.26-8.3a24.18,24.18,0,0,0,5.47-6.32c11.89-.05,23.92,4,34.64,11.39a82.08,82.08,0,0,1,25.67,29.2,13.31,13.31,0,0,1,15.81,7.75l19.67,48A38.2,38.2,0,0,1,1987.72,1058.61Z" transform="translate(-187.99 -14.08)"/><path class="cls-25" d="M1962,950.56c8,3.36,19.15,15.05,37.07,8a279.36,279.36,0,0,1,33-10.07c2.61-.5,4.1-.87,4.1-.87L2029,926.93a4.3,4.3,0,0,1-.87.25c-4.6,1-28,6-38.93,3.48-12.31-2.86-33,11.94-33,11.94S1954,947.33,1962,950.56Z" transform="translate(-187.99 -14.08)"/><path class="cls-30" d="M1737.23,1075.48c0-7.47-13.52-30.53-13.52-30.53s-13.53,23.06-13.53,30.53a13.53,13.53,0,0,0,27,0Z" transform="translate(-187.99 -14.08)"/><path class="cls-31" d="M2104.55,179.62,2084.7,184l-.47.1a4.85,4.85,0,0,0-3.77,5.24l1.79,16.87a5.65,5.65,0,0,1,0,.82,4.75,4.75,0,0,1-3.17,4.17,84.72,84.72,0,0,0-28.69,17.23,5.46,5.46,0,0,1-1.13.76,4.91,4.91,0,0,1-4.83-.33l-11.74-7.91a4.94,4.94,0,0,0-5.11-.18,5.8,5.8,0,0,0-1.31,1.09l-13.37,15.87a5,5,0,0,0,.3,6.69l13.33,13.31a4.79,4.79,0,0,1,1.12,5c-.88,2.53-1.66,5.09-2.31,7.72a84,84,0,0,0-2.3,14.8v0a4.88,4.88,0,0,1-3.44,4.38l-18.27,5.65-.92.3a4.76,4.76,0,0,0-3.26,5.58l4.41,20.3a5,5,0,0,0,5.38,3.88l18.78-2a4.81,4.81,0,0,1,4.93,2.81,85,85,0,0,0,14.56,21.76,4.86,4.86,0,0,1,.42,6l-9.35,13.94a5,5,0,0,0,.94,6.55l15.92,13.43a4.74,4.74,0,0,0,6.39-.28l15.66-15.64a5,5,0,0,1,5.08-1.2c2.2.75,4.44,1.4,6.73,2a84.86,84.86,0,0,0,12.89,2.17,4.69,4.69,0,0,1,4.15,3.34l6.78,22a4.87,4.87,0,0,0,5.67,3.32l20.37-4.42a4.9,4.9,0,0,0,3.8-4.54,4.19,4.19,0,0,0,0-.7l-2.2-20.83a4.82,4.82,0,0,1,2.42-4.76,2.38,2.38,0,0,1,.45-.23,14.44,14.44,0,0,0,1.38-.65,84.66,84.66,0,0,0,15.52-9.26,4.67,4.67,0,0,1,5.53-.12l14.73,9.86a4.92,4.92,0,0,0,6.52-.93l3-3.53L2198.33,351a4.88,4.88,0,0,0-.27-6.59l-13.13-13.11A4.68,4.68,0,0,1,2184,326a85.52,85.52,0,0,0,5.22-15,83,83,0,0,0,2-11.73l3.84-1.19,15.73-4.87a4.71,4.71,0,0,0,3.35-4.33,4.39,4.39,0,0,0-.12-1.24l-4.4-20.44a4.9,4.9,0,0,0-5.26-3.78l-12.83,1.38a4.84,4.84,0,0,1-5-3.1,85.22,85.22,0,0,0-13.13-23.42,4.7,4.7,0,0,1-.24-5.63L2185,215a4.67,4.67,0,0,0-.88-6.16L2168,195.31a4.74,4.74,0,0,0-6.44.26l-16.29,16.28a4.83,4.83,0,0,1-5.34,1,82.22,82.22,0,0,0-12.34-4.08c-2.31-.57-4.63-1-6.94-1.42a4.86,4.86,0,0,1-3.85-3.33L2110.28,183A4.93,4.93,0,0,0,2104.55,179.62Zm-39.91,95.15a52.32,52.32,0,0,1,9-15.34,30.89,30.89,0,0,1,3.12-3.19c5.16-4.55,12.7-8.65,18.56-9.9,44.84-9.49,74.57,38.83,46.69,74.39-.47.58-.93,1.16-1.42,1.73-4.53,5.37-13.92,11-20.77,12.53a57.35,57.35,0,0,1-10.46,1.32C2075.64,337.2,2053.57,304.78,2064.64,274.77Z" transform="translate(-187.99 -14.08)"/><path class="cls-32" d="M2407.7,248.45l-31.24,2.82-.75.07a7.47,7.47,0,0,0-6.78,7.3l-.49,26.19a7.47,7.47,0,0,1-.13,1.26,7.36,7.36,0,0,1-5.64,5.79,130.58,130.58,0,0,0-47.27,20.88,8,8,0,0,1-1.87.95,7.6,7.6,0,0,1-7.33-1.43l-16.47-14.37a7.65,7.65,0,0,0-7.8-1.25,8.23,8.23,0,0,0-2.21,1.42l-23.53,21.74a7.66,7.66,0,0,0-.82,10.31l17.87,22.95A7.39,7.39,0,0,1,2274,361c-1.83,3.72-3.52,7.48-5,11.4a129.89,129.89,0,0,0-6.36,22.22l0,0a7.54,7.54,0,0,1-6.1,6.05l-29.08,5.16-1.46.28a7.36,7.36,0,0,0-6.07,7.93l2.87,31.93a7.71,7.71,0,0,0,7.5,7l29.15.55a7.44,7.44,0,0,1,7,5.24,131,131,0,0,0,18.13,36.13,7.51,7.51,0,0,1-.5,9.25l-17,19.56a7.64,7.64,0,0,0,.17,10.21L2289,557.52a7.31,7.31,0,0,0,9.84.8l27-21a7.65,7.65,0,0,1,8-.86c3.22,1.55,6.53,3,9.92,4.29a132.09,132.09,0,0,0,19.33,5.81,7.25,7.25,0,0,1,5.73,5.9l6.17,35a7.5,7.5,0,0,0,8.05,6.16l32-2.87a7.55,7.55,0,0,0,6.69-6.22,5.42,5.42,0,0,0,.1-1.08l.62-32.34a7.45,7.45,0,0,1,4.62-6.82,4.66,4.66,0,0,1,.74-.27,20.72,20.72,0,0,0,2.23-.73,130.28,130.28,0,0,0,25.56-11.22,7.25,7.25,0,0,1,8.49.88l20.67,17.94a7.62,7.62,0,0,0,10.18-.18l5.24-4.83L2518.51,529a7.51,7.51,0,0,0,.84-10.14l-17.6-22.61a7.26,7.26,0,0,1-.42-8.32,132,132,0,0,0,10.88-22,129.55,129.55,0,0,0,5.38-17.58l6.1-1.08,25-4.45a7.28,7.28,0,0,0,6-6,6.48,6.48,0,0,0,.06-1.92l-2.82-32.16a7.57,7.57,0,0,0-7.34-6.8l-19.91-.34a7.48,7.48,0,0,1-7.11-5.72,131.64,131.64,0,0,0-15.63-38.39,7.25,7.25,0,0,1,.71-8.68l21.49-24.72a7.22,7.22,0,0,0-.17-9.61l-22.09-23.85a7.3,7.3,0,0,0-9.91-.83l-28.08,21.82a7.45,7.45,0,0,1-8.37.56,125.85,125.85,0,0,0-18.13-8.61q-5.16-2-10.35-3.5a7.54,7.54,0,0,1-5.27-5.85l-5.93-33.51A7.6,7.6,0,0,0,2407.7,248.45Zm-79.39,138.11A81,81,0,0,1,2345,364.78a48.35,48.35,0,0,1,5.39-4.29c8.78-6,21.11-10.81,30.33-11.61,70.51-5.93,106.8,73.79,57.26,122.93-.82.79-1.64,1.59-2.5,2.37-8,7.36-23.44,14.18-34.22,15.21a87.67,87.67,0,0,1-16.28,0C2333.2,484.31,2305.59,430.41,2328.31,386.56Z" transform="translate(-187.99 -14.08)"/></svg>